<svg width="1007" height="880" viewBox="0 0 1007 880" fill="none" xmlns="http://www.w3.org/2000/svg">
<path d="M437.991 873.107C440.38 830.074 442.771 788.238 441.576 745.209C440.38 709.353 440.38 662.734 422.452 631.656C408.108 607.749 386.592 611.336 362.685 612.534C330.413 613.725 301.726 608.947 270.649 596.994C251.525 588.627 221.642 568.307 200.124 580.259C179.804 592.212 173.828 628.073 163.072 647.195C151.119 671.097 135.58 681.861 108.088 680.66C85.3769 678.274 63.8614 672.293 48.3219 693.813C26.8064 726.083 31.5868 779.873 32.7849 815.735C32.7849 834.856 33.9807 855.176 36.3697 873.107H437.991Z" fill="#E9FFFF"/>
<path d="M449.36 875.145C449.36 877.829 447.189 880 444.504 880H20.5107C17.8289 880 15.6553 877.831 15.6553 875.145C15.6553 872.465 17.8313 870.289 20.5107 870.289H444.507C447.189 870.289 449.36 872.465 449.36 875.145Z" fill="#AFDCE8"/>
<path d="M91.0223 585.006C114.917 585.006 188.27 585.006 200.13 585.006C211.993 585.006 214.495 565.652 200.13 566.828C185.764 567.999 175.492 570.713 175.492 570.713C175.492 570.713 177.535 559.201 168.044 554.989C158.139 550.589 150.505 561.353 150.505 561.353C150.505 561.353 152.56 540.266 143.203 535.754C124.955 526.956 110.159 539.157 113.76 566.039C113.76 566.039 87.5271 554.839 77.2837 560.201C67.0378 565.562 58.3362 585.006 91.0223 585.006Z" fill="#E9FFFF"/>
<path d="M118.964 682.911C95.0688 682.911 21.7189 682.911 9.85614 682.911C-2.00174 682.911 -4.50935 663.552 9.85614 664.724C24.2241 665.9 34.4965 668.609 34.4965 668.609C34.4965 668.609 32.4537 657.102 41.9443 652.885C51.8489 648.49 59.483 659.249 59.483 659.249C59.483 659.249 57.4305 638.164 66.788 633.655C85.0311 624.856 99.8274 637.058 96.2282 663.94C96.2282 663.94 122.461 652.74 132.71 658.102C142.955 663.458 151.652 682.911 118.964 682.911Z" fill="#E9FFFF"/>
<path d="M76.8994 706.798C90.3984 706.798 139.836 706.798 150.922 706.798C162.006 706.798 161.957 687.246 150.922 686.919C139.885 686.592 129.625 693.311 129.625 693.311C129.625 693.311 125.64 666.147 111.394 667.749C97.1467 669.346 99.3953 695.545 99.3953 695.545C99.3953 695.545 84.4005 689.131 72.4046 691.235C60.4063 693.341 58.9032 706.798 76.8994 706.798Z" fill="white"/>
<path d="M515.552 704.37C508.84 714.657 344.645 728.465 328.874 715.734C317.894 706.87 313.09 631.167 315.919 585.718C317.156 565.873 324.841 551.127 329.147 550.389C343.316 548.012 489.348 520.407 502.61 530.251C515.869 540.095 524.852 690.128 515.552 704.37Z" fill="#F4A067"/>
<path d="M502.608 530.253C506.835 533.398 510.642 550.902 513.542 573.698L315.92 585.721C317.186 566.338 324.895 551.115 329.148 550.392C343.317 548.015 489.349 520.412 502.608 530.253Z" fill="#FFC192"/>
<path opacity="0.5" d="M430.113 647.121L430.086 646.7C429.854 642.42 425.214 642.42 423.469 642.42C421.017 642.42 417.534 642.604 414.711 642.788C414.69 642.362 414.668 641.929 414.648 641.488C414.54 639.247 414.428 636.931 414.099 634.573C413.62 631.17 411.064 628.795 407.883 628.795C407.375 628.795 406.859 628.851 406.346 628.974L406.327 628.914C406.114 628.979 405.857 629.013 405.535 629.052C402.001 629.483 400.082 631.492 399.835 635.018C399.632 637.846 399.603 640.748 399.75 644.001C399.429 644.015 399.102 644.035 398.775 644.049C396.531 644.158 394.215 644.272 391.857 644.599C389.742 644.901 387.956 646.017 386.953 647.663C386.106 649.052 385.869 650.703 386.264 652.366L386.203 652.385C386.266 652.598 386.298 652.848 386.336 653.169C386.774 656.701 388.778 658.62 392.3 658.87C394.936 659.054 397.698 659.092 400.68 658.974C400.997 664.241 401.246 667.782 401.498 669.077C402.244 672.95 406.511 672.95 407.912 672.95C408.847 672.95 409.887 672.896 410.727 672.855C411.158 672.836 411.516 672.812 411.773 672.812H411.775C413.31 672.812 414.75 672.136 415.723 670.953C417.1 669.287 417.432 666.92 416.769 663.498C416.425 661.738 416.185 659.932 415.992 658.032C421.404 657.71 425.042 657.456 426.366 657.195C430.701 656.355 430.401 651.659 430.113 647.121Z" fill="#E0AD3D"/>
<path opacity="0.3" d="M515.553 704.37C516.018 703.651 516.451 702.589 516.812 701.207C476.223 700.531 436.658 693.568 399.622 678.302C362.34 662.738 335.998 638.325 315.078 610.287C314.743 654.317 319.655 708.287 328.874 715.734C344.646 728.468 508.841 714.657 515.553 704.37Z" fill="#E0AD3D"/>
<path opacity="0.5" d="M469.556 566.051L347.347 569.976L348.184 596.06L470.393 592.136L469.556 566.051Z" fill="#E0AD3D"/>
<path d="M238.17 609.409L254.653 593.889L263.009 602.559L250.587 622.364L238.17 609.409Z" fill="#FFC8BB"/>
<path d="M259.012 608.928L263.006 602.559L254.653 593.889L250.908 597.416C252.208 599.359 253.52 601.279 254.846 603.164C256.168 605.144 257.584 607.049 259.012 608.928Z" fill="#FFAA9F"/>
<path d="M292.163 585.526C292.163 598.011 283.524 608.124 272.867 608.124C262.214 608.124 253.573 598.011 253.573 585.526C253.573 573.051 262.214 562.934 272.867 562.934C283.524 562.934 292.163 573.051 292.163 585.526Z" fill="#FFC8BB"/>
<path d="M265.797 586.973C266.874 584.514 267.337 581.116 270.418 580.351C274.426 579.424 279.359 582.2 283.215 583.122C286.444 583.831 289.334 583.727 292.045 583.067C290.994 571.748 282.813 562.938 272.87 562.938C262.217 562.938 253.576 573.056 253.576 585.531C253.576 586.056 253.615 586.571 253.644 587.087C256.135 587.329 258.257 588.179 260.707 589.909C263.633 592.064 264.715 589.904 265.797 586.973Z" fill="#FFAA9F"/>
<path d="M270.855 593.006L261.51 584.762C261.285 584.558 260.931 584.587 260.728 584.812C260.522 585.04 260.551 585.389 260.777 585.592L269.933 593.662L265.271 603.116L254.273 594.402C254.036 594.214 253.685 594.25 253.498 594.492C253.307 594.734 253.346 595.078 253.588 595.266L264.768 604.125L263.865 606.03C263.865 606.03 274.314 612.077 282.246 607.354C288.372 603.709 291.146 593.635 291.146 593.635C284.381 591.524 273.477 592.614 270.855 593.006Z" fill="#FFFDE6"/>
<path d="M247.485 589.176L258.534 590.859C258.534 590.859 258.513 592.391 260.013 592.604C261.509 592.822 262.903 589.612 262.903 576.762C262.903 573.126 268.577 573.443 274.677 575.799C280.779 578.154 290.886 579.061 292.878 571.836C294.912 564.451 289.129 553.743 285.707 553.211C285.278 554.709 285.491 558.993 280.887 557.81C276.284 556.633 266.861 552.354 259.691 553.211C252.52 554.068 255.41 557.386 255.41 557.386C255.41 557.386 249.521 556.527 247.487 562.629C245.452 568.728 244.488 580.506 247.485 589.176Z" fill="#633870"/>
<path d="M283.518 571.098C274.425 570.483 257.622 562.314 253.921 575.106C252.996 578.038 252.841 580.964 252.689 583.895C252.488 585.885 252.202 587.872 251.893 589.847L258.532 590.859C258.532 590.859 258.51 592.391 260.011 592.604C261.507 592.822 262.901 589.612 262.901 576.762C262.901 573.126 268.574 573.444 274.674 575.799C280.776 578.154 290.884 579.061 292.876 571.836C293.099 571.033 293.21 570.186 293.258 569.321C290.368 570.885 286.9 571.217 283.518 571.098Z" fill="#3B2244"/>
<path d="M259.012 588.295C259.012 592.257 255.805 595.462 251.848 595.462C247.888 595.462 244.681 592.257 244.681 588.295C244.681 584.333 247.89 581.128 251.848 581.128C255.805 581.13 259.012 584.335 259.012 588.295Z" fill="#FFC8BB"/>
<path d="M250.28 584.708C252.19 585.163 253.504 586.707 254.104 588.532C254.39 589.396 254.31 590.272 253.867 591.057C253.427 591.836 252.599 592.306 252.456 593.218C252.376 593.724 252.579 594.126 253.068 594.3C254.37 594.782 255.721 593.567 256.312 592.485C257.019 591.185 256.972 589.624 256.554 588.249C255.74 585.606 253.124 583.786 250.374 583.994C249.985 584.023 249.864 584.608 250.28 584.708Z" fill="#FFAA9F"/>
<path d="M70.1194 839.369L62.5869 848.01L67.7304 852.785L77.4728 844.88L70.1194 839.369Z" fill="#FFC8BB"/>
<path d="M57.2564 852.786C57.2564 852.786 66.0766 872.636 67.5506 872.82C69.0199 873.004 94.1976 872.82 96.589 872.82C98.978 872.82 97.1385 864.622 90.3394 862.84C83.5403 861.059 78.3701 861.754 75.5648 860.991C75.0033 860.836 63.339 846.076 63.339 846.076C63.339 846.076 56.3777 850.828 57.2564 852.786Z" fill="#07AC9B"/>
<path d="M68.2233 856.332C68.2233 856.332 65.8004 849.061 68.2233 847.34C70.6486 845.614 71.8782 848.669 73.1369 853.084C74.398 857.494 73.9332 858.336 75.5622 860.994L71.8564 862.373L68.2233 856.332Z" fill="#07AC9B"/>
<path d="M55.8699 851.055C58.3363 858.827 61.1658 869.347 68.2481 874.125C70.7993 875.85 75.6959 874.899 78.4335 874.754C84.8792 874.413 91.3273 874.589 97.7585 874.011C99.6416 873.846 99.6586 870.886 97.7585 871.06C89.6645 871.789 81.4421 871.755 73.3142 872.024C66.8152 872.237 59.3553 853.718 57.1769 850.269C57.022 850.024 55.7706 850.743 55.8699 851.055Z" fill="#FFFDE6"/>
<path d="M83.9831 872.899C83.9831 872.899 83.666 862.578 86.9167 860.352C86.9167 860.352 97.8257 861.884 98.3364 872.28C98.3364 872.28 91.0654 873.265 83.9831 872.899Z" fill="#FFFDE6"/>
<path d="M75.6896 855.008C74.0703 855.163 72.5963 855.291 71.1851 856.158C69.653 857.094 68.4089 858.421 67.5883 860.021C66.6637 861.802 69.4061 863.378 70.2702 861.582C70.9019 860.277 71.7854 859.321 73.0029 858.532C74.1188 857.808 75.0724 856.891 76.1278 856.073C76.5465 855.741 76.2028 854.955 75.6896 855.008Z" fill="#FFFDE6"/>
<path d="M78.8798 857.663C77.4759 857.777 76.0116 858.471 75.3024 859.732C74.8739 860.497 74.5883 861.359 74.3463 862.201C74.0704 863.165 74.2228 863.779 74.5956 864.682C74.8328 865.249 75.6606 865.709 76.1568 865.094C76.4811 864.687 77.1105 864.172 77.1879 863.641C77.2823 862.993 77.4058 862.361 77.58 861.732C77.8947 860.565 78.2529 859.178 79.1533 858.324C79.3857 858.103 79.2187 857.641 78.8798 857.663Z" fill="#FFFDE6"/>
<path d="M81.9622 858.569C80.8658 860.048 80.1324 861.674 79.5781 863.424C79.0432 865.126 78.9657 867.396 80.4688 868.514C80.844 868.793 81.5048 868.766 81.8824 868.514C83.3347 867.558 83.0805 866.043 83.262 864.482C83.4654 862.705 83.2669 861.11 83.8091 859.348C84.1673 858.172 82.6012 857.697 81.9622 858.569Z" fill="#FFFDE6"/>
<path d="M267.13 843.345H258.141V862.109H267.13V843.345Z" fill="#FFC8BB"/>
<path d="M255.309 870.853C255.309 870.853 269.779 871.894 271.248 872.078C272.717 872.262 297.897 872.078 300.286 872.078C302.675 872.078 300.838 863.885 294.036 862.098C287.235 860.317 282.067 861.016 279.259 860.249C278.698 860.097 256.841 860.784 256.841 860.784C256.841 860.784 254.43 868.895 255.309 870.853Z" fill="#07AC9B"/>
<path d="M270.594 860.9C270.594 860.9 264.301 856.522 265.213 853.692C266.128 850.865 268.936 852.576 272.586 855.358C276.234 858.141 276.369 859.097 279.259 860.249L277.12 863.578L270.594 860.9Z" fill="#07AC9B"/>
<path d="M254.961 873.102C257.331 874.034 279.396 874.158 282.131 874.015C288.579 873.674 295.03 873.85 301.461 873.267C303.339 873.102 303.358 870.147 301.461 870.316C293.364 871.04 285.142 871.016 277.014 871.285C270.518 871.498 260.71 870.036 256.058 870.036C254.501 870.036 253.562 872.551 254.961 873.102Z" fill="#FFFDE6"/>
<path d="M287.683 872.164C287.683 872.164 287.364 861.843 290.617 859.611C290.617 859.611 301.524 861.144 302.037 871.539C302.037 871.539 294.763 872.527 287.683 872.164Z" fill="#FFFDE6"/>
<path d="M276.773 857.1C275.154 857.255 273.677 857.383 272.266 858.245C270.732 859.182 269.49 860.515 268.669 862.108C267.745 863.894 270.487 865.47 271.354 863.672C271.985 862.362 272.866 861.408 274.086 860.617C275.202 859.898 276.158 858.981 277.214 858.163C277.632 857.833 277.286 857.054 276.773 857.1Z" fill="#FFFDE6"/>
<path d="M282.006 857.909C280.605 858.022 279.141 858.712 278.431 859.978C278.001 860.738 277.717 861.6 277.475 862.437C277.199 863.405 277.352 864.025 277.722 864.928C277.959 865.489 278.79 865.949 279.281 865.335C279.608 864.928 280.237 864.412 280.315 863.882C280.411 863.238 280.535 862.607 280.704 861.982C281.021 860.811 281.382 859.424 282.28 858.569C282.515 858.349 282.348 857.879 282.006 857.909Z" fill="#FFFDE6"/>
<path d="M285.661 857.829C284.567 859.308 283.831 860.934 283.279 862.684C282.742 864.381 282.667 866.651 284.17 867.777C284.543 868.055 285.206 868.029 285.584 867.777C287.034 866.818 286.782 865.301 286.963 863.74C287.169 861.963 286.971 860.368 287.51 858.606C287.866 857.432 286.3 856.96 285.661 857.829Z" fill="#FFFDE6"/>
<path d="M65.6982 837.483L79.2238 846.848C79.2238 846.848 142.263 798.751 152.174 789.139C162.079 779.527 190.875 741.018 190.875 741.018C190.875 741.018 237.745 773.222 240.749 776.828C243.75 780.435 255.115 850.222 255.115 850.222H271.075C271.075 850.222 274.21 780.128 272.191 774.425C270.175 768.72 214.625 701.46 214.625 701.46L165.083 693.654C165.083 693.654 127.851 766.442 122.146 771.941C116.441 777.429 65.6982 837.483 65.6982 837.483Z" fill="#9B68C4"/>
<path d="M219.962 707.949C216.666 703.936 214.625 701.462 214.625 701.462L165.083 693.656C165.083 693.656 157.623 708.24 148.873 724.844C159.446 722.886 169.958 720.569 180.39 718.084C193.572 714.847 206.875 711.575 219.962 707.949Z" fill="#7551AD"/>
<path d="M252.885 784.734C244.759 761.976 214.198 712.889 185.915 738.575C169.662 753.202 159.583 774.33 146.253 791.562C144.23 794.236 142.163 796.85 140.05 799.428C145.699 794.851 150.102 791.155 152.174 789.141C162.079 779.53 190.875 741.02 190.875 741.02C190.875 741.02 237.745 773.224 240.749 776.831C243.75 780.437 255.114 850.224 255.114 850.224H256.762C258.89 828.174 260.337 806.157 252.885 784.734Z" fill="#7551AD"/>
<path d="M302.962 706.105C302.962 706.105 308.793 710.614 309.415 711.396C310.035 712.17 315.556 719.635 319.363 720.022C323.175 720.41 332.891 713.489 333.358 711.928C333.825 710.377 326.673 705.248 324.887 703.769C323.098 702.295 324.03 699.189 323.485 698.253C322.94 697.316 316.863 697.335 313.764 701.046C312.598 702.454 308.865 698.72 308.865 698.72L302.962 706.105Z" fill="#FFC8BB"/>
<path d="M160.578 697.861C160.578 697.861 180.097 706.272 223.336 706.272C223.336 706.272 238.948 660.634 242.852 656.122C246.754 651.622 261.166 678.342 268.074 683.749C274.979 689.152 304.405 710.771 304.405 710.771L312.811 698.461C312.811 698.461 284.288 674.738 280.684 668.135C277.083 661.532 256.041 618.798 243.143 604.735C230.239 590.665 208.024 612.587 191.209 632.108C174.392 651.62 160.878 686.15 160.578 697.861Z" fill="#FFDF56"/>
<path d="M261.139 664.906C256.335 658.269 249.698 644.313 240.548 642.943C230.712 641.34 224.305 657.356 221.332 664.221C215.557 677.572 212.069 691.783 209.167 705.945C213.572 706.153 218.287 706.272 223.336 706.272C223.336 706.272 238.948 660.634 242.853 656.122C246.754 651.622 261.166 678.342 268.074 683.749C274.98 689.152 304.405 710.771 304.405 710.771L306.465 707.76C290.057 694.666 273.689 682.038 261.139 664.906Z" fill="#FFC545"/>
<path d="M152.408 356.421C150.019 313.39 147.627 271.554 148.823 228.526C150.019 192.666 150.019 146.051 167.947 114.972C182.291 91.0648 203.806 94.6519 227.711 95.8477C259.983 97.0434 288.673 92.2605 319.749 80.3082C338.873 71.9407 368.757 51.6208 390.272 63.5755C410.594 75.5278 416.571 111.387 427.327 130.511C439.282 154.416 454.819 165.175 482.31 163.979C505.022 161.59 526.535 155.611 542.074 177.129C563.592 209.402 558.807 263.192 557.614 299.051C557.614 318.173 556.418 338.495 554.027 356.423H152.408V356.421Z" fill="#E9FFFF"/>
<path d="M165.381 358.411H85.4688V13.0993L165.381 0.193359V358.411Z" fill="#C3E6EA"/>
<path d="M349.267 358.411H165.079V0.452096C165.079 0.452096 252.492 -9.95834 349.267 69.1329V358.411Z" fill="#D6ECED"/>
<g opacity="0.7">
<path opacity="0.5" d="M165.081 230.956V271.066C188.92 268.142 279.545 260.152 349.269 296.212V270.995C279.845 228.093 188.959 229.685 165.081 230.956Z" fill="white"/>
<path opacity="0.5" d="M165.081 178.405C188.92 177.028 279.545 174.656 349.269 211.58V186.31C279.845 142.19 188.961 135.906 165.081 135.018V178.405Z" fill="white"/>
<path opacity="0.5" d="M349.266 122.725V94.6838C282.016 45.7661 189.276 39.1921 165.078 38.3086V81.9763C166.903 81.9497 269.734 80.5627 349.266 122.725Z" fill="white"/>
<path opacity="0.6" d="M210.82 268.251C218.723 268.186 227.255 268.346 236.213 268.815V233.902C227.263 232.741 218.723 231.939 210.82 231.421V268.251Z" fill="white"/>
<path opacity="0.6" d="M210.82 178.321C218.723 178.693 227.255 179.308 236.213 180.238V143.662C227.263 141.871 218.723 140.44 210.82 139.303V178.321Z" fill="white"/>
<path opacity="0.6" d="M236.213 47.429C227.275 45.5095 218.73 43.9798 210.82 42.772V84.4718C218.636 85.273 227.168 86.3332 236.213 87.7249V47.429Z" fill="white"/>
</g>
<path d="M321.288 63.3503L311.384 59.0371V45.7971L297.969 40.1187V55.4088L285.62 51.0931V69.4862L297.969 73.8019V86.7466L311.384 92.425V77.4302L321.288 81.7411V63.3503Z" fill="#AFDCE8"/>
<path d="M562.997 357.861C562.997 360.543 560.825 362.717 558.141 362.717H76.3975C73.7156 362.717 71.542 360.543 71.542 357.861C71.542 355.182 73.7156 353.006 76.3975 353.006H558.141C560.823 353.006 562.997 355.179 562.997 357.861Z" fill="#AFDCE8"/>
<path d="M443.861 352.755C447.37 357.214 522.223 353.845 528.763 346.869C533.311 342.013 532.002 305.929 528.623 284.607C527.144 275.3 522.995 268.789 521.015 268.707C514.497 268.429 447.223 264.181 441.687 269.636C436.149 275.085 439.005 346.573 443.861 352.755Z" fill="#F4A067"/>
<path opacity="0.5" d="M522.244 296.37C513.947 313.628 511.623 329.62 500.172 347.048C498.618 349.224 497.059 351.325 495.493 353.373C511.674 352.019 526.056 349.752 528.763 346.869C533.165 342.168 532.069 308.148 528.922 286.643C526.085 288.669 523.936 291.643 522.244 296.37Z" fill="#E0AD3D"/>
<path opacity="0.3" d="M442.367 348.612C442.837 350.628 443.335 352.09 443.861 352.755C447.37 357.214 522.223 353.845 528.763 346.869C530.3 345.228 531.16 340.036 531.513 333.055C521.163 333.653 510.617 335.391 503.399 336.086C483.578 338.671 462.929 345.68 442.367 348.612Z" fill="#E0AD3D"/>
<path d="M492.32 287.122L492.722 291.58C492.722 291.58 513.417 291.372 520.178 289.107L519.425 285.241L492.32 287.122Z" fill="#E0AD3D"/>
<path opacity="0.3" d="M441.689 269.636C439.917 271.377 439.009 279.885 438.743 290.837L528.623 284.607C527.156 275.52 522.976 268.784 521.015 268.707C514.499 268.429 447.224 264.181 441.689 269.636Z" fill="#E0AD3D"/>
<path d="M460.566 279.274C455.357 279.265 451.392 283.019 449.669 287.567C449.129 288.283 448.773 289.148 448.647 290.145L473.745 288.407C472.184 282.634 466.382 279.287 460.566 279.274Z" fill="#FFFDE6"/>
<path d="M492.577 283C490.338 283.554 486.603 284.859 483.851 286.655C482.987 286.882 482.302 287.311 481.74 287.853L506.134 286.164C502.065 282.77 497.819 281.703 492.577 283Z" fill="#FFFDE6"/>
<path d="M525.036 283.443C522.112 280.129 515.252 275.293 511.43 280.158C510.23 281.681 509.598 283.811 509.571 285.926L525.832 284.803C525.646 284.322 525.404 283.857 525.036 283.443Z" fill="#FFFDE6"/>
<path opacity="0.3" d="M528.623 284.607C528.298 282.649 527.855 280.807 527.33 279.11C521.306 279.328 515.274 279.548 509.283 279.812C501.315 280.281 493.497 280.906 485.529 281.218C474.9 281.533 464.107 280.751 453.634 281.845C450.894 282.104 448.653 282.574 447.007 283.769C446.457 278.577 445.651 273.444 444.018 268.697C443.993 268.615 443.87 268.629 443.863 268.716C443.536 274.429 444.654 280.211 445.08 285.914C445.085 285.962 445.09 286.011 445.097 286.061C444.736 286.776 444.431 287.574 444.252 288.569C444.136 289.252 443.989 289.864 443.838 290.481L445.373 290.375L447.595 290.222V290.22L528.623 284.607Z" fill="#E0AD3D"/>
<path d="M438.743 290.835C438.76 290.125 426.123 257.226 427.059 254.685C428.001 252.141 436.855 243.546 437.586 245.264C438.315 246.983 443.511 268.692 443.511 268.692L438.743 290.835Z" fill="#FFC192"/>
<path d="M521.017 268.707C521.017 268.707 523.51 243.076 524.294 243.234C525.073 243.389 538.202 259.647 538.517 261.99C538.834 264.338 528.624 284.607 528.624 284.607L521.017 268.707Z" fill="#FFC192"/>
<path opacity="0.5" d="M495.29 321.095L495.278 320.902C495.171 318.929 493.032 318.929 492.226 318.929C491.095 318.929 489.491 319.016 488.191 319.101C488.181 318.902 488.169 318.702 488.159 318.501C488.108 317.467 488.058 316.397 487.908 315.313C487.685 313.744 486.509 312.648 485.039 312.648C484.802 312.648 484.57 312.675 484.33 312.73L484.32 312.704C484.221 312.733 484.105 312.75 483.957 312.767C482.328 312.965 481.445 313.89 481.329 315.514C481.234 316.818 481.222 318.157 481.29 319.655C481.142 319.662 480.99 319.67 480.84 319.677C479.806 319.728 478.736 319.779 477.65 319.931C476.677 320.069 475.854 320.585 475.389 321.342C474.999 321.986 474.888 322.744 475.072 323.511L475.043 323.521C475.072 323.618 475.086 323.736 475.103 323.884C475.307 325.51 476.229 326.394 477.853 326.51C479.068 326.597 480.341 326.612 481.718 326.558C481.866 328.986 481.977 330.62 482.096 331.215C482.44 332.999 484.405 332.999 485.051 332.999C485.482 332.999 485.964 332.975 486.349 332.956C486.547 332.946 486.712 332.936 486.83 332.936H486.833C487.54 332.936 488.2 332.627 488.651 332.079C489.287 331.31 489.44 330.218 489.135 328.645C488.975 327.834 488.864 326.999 488.777 326.123C491.27 325.973 492.949 325.856 493.557 325.738C495.559 325.353 495.426 323.189 495.29 321.095Z" fill="#E0AD3D"/>
<path d="M405.928 211.508C405.928 211.508 413.366 199.822 415.559 199.239C417.762 198.651 416.781 204.874 418.635 204.799C420.49 204.723 427.703 205.786 428.642 207.478C429.574 209.17 431.708 215.887 426.12 218.339C420.531 220.795 409.936 218.76 407.066 218.133C404.2 217.511 352.508 229.657 345.586 229.693C338.661 229.729 304.888 211.462 300.199 208.683C295.509 205.912 288.709 175.891 293.454 177.058C298.2 178.222 344.763 212.789 348.171 214.376C357.744 214.238 373.939 212.454 405.928 211.508Z" fill="#FFAA9F"/>
<path d="M456.47 235.856C451.912 230.555 454.925 225.498 453.543 219.513C452.645 215.652 450.322 213.742 447.296 212.375L447.364 212.116C447.364 212.116 442.295 202.99 435.264 202.281C429.632 201.715 423.757 204.844 421.637 206.115C420.802 204.571 419.649 203.143 417.725 203.45C417.587 203.472 417.575 203.673 417.686 203.734C419.018 204.462 420.015 206.43 420.606 207.814L418.848 218.249C416.191 220.033 414.356 222.521 412.526 225.3C409.295 230.196 405.177 231.68 399.756 233.111C399.066 233.292 399.23 234.314 399.923 234.331C403.58 234.42 407.315 233.428 410.135 230.954C413.681 227.841 415.38 223.417 418.805 220.394C420.121 221.703 426.272 227.582 431.05 228.03C435.201 228.425 440.371 227.544 442.508 227.125C443.719 229.642 444.256 232.21 444.433 235.459C444.588 238.443 444.726 241.265 445.411 244.182C446.238 247.704 448.986 249.868 452.536 250.02C453.2 250.052 453.526 249.008 452.89 248.718C450.164 247.483 448.494 246.9 447.468 243.618C446.507 240.527 446.877 236.904 446.81 233.711C446.756 230.744 445.471 228.204 443.767 225.936L446.827 214.173C447.686 214.79 448.531 215.412 449.344 216.095C452.224 218.51 451.433 223.528 451.496 226.859C451.561 230.509 452.149 235.004 455.804 236.715C456.375 236.971 456.879 236.332 456.47 235.856Z" fill="#FFFDE6"/>
<path d="M405.422 210.509C406.671 207.958 408.951 206.031 410.982 204.114C411.103 203.995 410.969 203.828 410.827 203.85C407 204.506 404.894 207.345 403.11 210.635C402.009 212.656 401.609 214.912 401.15 217.134C400.465 220.45 398.635 222.957 396.253 225.274C396.011 225.516 396.347 225.98 396.631 225.763C399.61 223.487 401.554 221.135 402.919 217.62C403.848 215.243 404.284 212.818 405.422 210.509Z" fill="#FFFDE6"/>
<path d="M393.929 350.46L403.899 348.959L399.61 328.709L389.645 330.208L393.929 350.46Z" fill="#FFC8BB"/>
<path d="M390.045 357.252C390.045 357.252 404.483 358.627 405.952 358.845C407.416 359.058 432.596 359.464 434.981 359.517C437.37 359.573 435.721 351.341 428.968 349.397C422.208 347.454 417.021 348.032 414.24 347.205C413.68 347.038 391.816 347.217 391.816 347.217C391.816 347.217 389.217 355.27 390.045 357.252Z" fill="#9B68C4"/>
<path d="M405.557 347.66C405.557 347.66 399.373 343.136 400.346 340.328C401.326 337.518 404.098 339.292 407.675 342.158C411.262 345.026 411.371 345.985 414.237 347.207L412.018 350.479L405.557 347.66Z" fill="#9B68C4"/>
<path d="M389.645 359.488C391.991 360.476 414.051 361.112 416.783 361.033C423.244 360.841 429.687 361.168 436.133 360.737C438.013 360.611 438.101 357.661 436.198 357.784C428.087 358.324 419.867 358.106 411.732 358.188C405.238 358.247 395.469 356.564 390.814 356.451C389.255 356.414 388.256 358.903 389.645 359.488Z" fill="#FFFDE6"/>
<path d="M422.382 359.309C422.382 359.309 422.302 348.983 425.601 346.827C425.601 346.827 436.469 348.615 436.745 359.021C436.745 359.021 429.455 359.837 422.382 359.309Z" fill="#FFFDE6"/>
<path d="M411.821 344C410.202 344.116 408.723 344.213 407.292 345.041C405.741 345.939 404.463 347.243 403.601 348.814C402.64 350.581 405.344 352.222 406.251 350.448C406.915 349.151 407.82 348.216 409.057 347.456C410.19 346.759 411.165 345.866 412.237 345.072C412.668 344.755 412.339 343.963 411.821 344Z" fill="#FFFDE6"/>
<path d="M417.037 344.929C415.631 345.007 414.152 345.67 413.414 346.909C412.971 347.667 412.659 348.521 412.402 349.354C412.104 350.317 412.242 350.934 412.596 351.845C412.809 352.418 413.636 352.895 414.14 352.295C414.476 351.895 415.111 351.392 415.207 350.867C415.319 350.223 415.454 349.596 415.643 348.971C415.987 347.81 416.374 346.43 417.291 345.6C417.533 345.384 417.376 344.91 417.037 344.929Z" fill="#FFFDE6"/>
<path d="M420.687 344.929C419.559 346.389 418.792 347.991 418.194 349.729C417.618 351.416 417.485 353.686 418.966 354.841C419.331 355.124 419.995 355.114 420.377 354.877C421.849 353.955 421.633 352.43 421.849 350.871C422.096 349.102 421.938 347.502 422.519 345.752C422.906 344.585 421.352 344.082 420.687 344.929Z" fill="#FFFDE6"/>
<path d="M314.383 265.55C314.383 265.55 363.216 231.007 370.293 235.761C377.371 240.515 407.936 337.702 407.936 337.702L385.327 338.52C385.327 338.52 358.987 271.855 355.415 273.893C351.835 275.927 327.901 303.256 327.901 303.256L294.182 265.405L314.383 265.55Z" fill="#0BC1B4"/>
<path d="M365.169 264.574C357.462 259.535 351.232 266.648 345.597 271.693C339.367 277.625 333.439 280.59 324.544 278.806C314.855 276.71 305.63 272.078 296.459 267.96L327.901 303.258C327.901 303.258 351.835 275.929 355.414 273.895C358.989 271.857 385.327 338.522 385.327 338.522L400.566 337.97C396.207 326.555 391.864 315.138 387.408 303.723C382.669 291.562 377.032 271.986 365.169 264.574Z" fill="#07AC9B"/>
<path d="M247.658 337.679L247.433 347.292L271.778 347.862L272.003 338.249L247.658 337.679Z" fill="#FFC8BB"/>
<path d="M250.824 328.589C250.824 328.589 240.242 338.511 239.112 339.472C237.979 340.425 221.026 359.044 219.402 360.799C217.782 362.553 225.046 366.76 230.972 362.979C236.899 359.191 239.896 354.926 242.36 353.38C242.856 353.077 257.18 336.56 257.18 336.56C257.18 336.56 252.86 329.272 250.824 328.589Z" fill="#9B68C4"/>
<path d="M247.765 346.566C247.765 346.566 255.247 344.918 256.709 347.505C258.166 350.1 255.002 351.005 250.483 351.794C245.962 352.588 245.173 352.036 242.36 353.377L241.375 349.551L247.765 346.566Z" fill="#9B68C4"/>
<path d="M249.409 326.813C247.117 327.919 232.052 344.037 230.3 346.148C226.173 351.114 221.671 355.733 217.728 360.85C216.578 362.343 218.735 364.364 219.897 362.851C224.859 356.413 230.457 350.393 235.777 344.24C240.028 339.324 247.754 333.106 250.912 329.696C251.975 328.553 250.762 326.157 249.409 326.813Z" fill="#FFFDE6"/>
<path d="M227.896 351.485C227.896 351.485 235.69 358.255 235.126 362.157C235.126 362.157 226.594 369.123 218.611 362.445C218.611 362.445 222.823 356.437 227.896 351.485Z" fill="#FFFDE6"/>
<path d="M246.359 353.692C247.344 352.39 248.249 351.223 248.571 349.602C248.929 347.839 248.794 346.029 248.181 344.342C247.494 342.449 244.483 343.393 245.211 345.247C245.739 346.605 245.846 347.898 245.596 349.333C245.369 350.64 245.395 351.966 245.282 353.293C245.238 353.823 246.044 354.101 246.359 353.692Z" fill="#FFFDE6"/>
<path d="M242.216 356.986C243.087 355.878 243.566 354.333 243.121 352.954C242.852 352.121 242.414 351.33 241.957 350.582C241.436 349.722 240.877 349.415 239.967 349.074C239.388 348.861 238.493 349.163 238.604 349.943C238.682 350.453 238.636 351.269 238.967 351.683C239.376 352.191 239.761 352.714 240.102 353.268C240.744 354.295 241.526 355.495 241.538 356.739C241.547 357.064 242.005 357.255 242.216 356.986Z" fill="#FFFDE6"/>
<path d="M239.795 359.731C239.449 357.918 238.754 356.277 237.844 354.68C236.961 353.128 235.349 351.531 233.502 351.877C233.042 351.966 232.616 352.47 232.546 352.913C232.262 354.631 233.55 355.474 234.572 356.672C235.738 358.03 237.043 358.959 237.975 360.557C238.59 361.614 239.998 360.787 239.795 359.731Z" fill="#FFFDE6"/>
<path d="M300.484 261.32C300.484 261.32 369.683 328.241 372.36 334.302C375.047 340.365 376.129 354.513 345.423 354.152C314.719 353.789 269.21 352.378 269.21 352.378L267.915 332.225L319.149 330.24C319.149 330.24 283.125 303.985 276.207 296.056C269.292 288.134 263.698 270.704 269.607 259.543C275.52 248.382 300.484 261.32 300.484 261.32Z" fill="#0BC1B4"/>
<path d="M325.727 337.824C331.361 338.124 339.959 339.9 345.296 337.23C339.068 331.598 332.843 325.665 326.617 320.033C312.973 307.28 297.85 296.603 285.097 283.557C281.243 279.703 275.904 273.771 279.462 268.133C282.833 263.319 290.501 261.242 296.601 259.521C289.347 256.411 274.064 251.127 269.61 259.541C263.702 270.701 269.296 288.131 276.211 296.053C283.126 303.983 319.153 330.238 319.153 330.238L267.918 332.223L268.42 340C277.155 339.08 285.912 338.325 294.887 337.821C304.969 337.531 315.348 337.531 325.727 337.824Z" fill="#07AC9B"/>
<path d="M312.592 161.709L329.433 146.577L337.576 155.438L324.704 174.949L312.592 161.709Z" fill="#FFC8BB"/>
<path d="M329.434 146.577L325.259 150.326C327.127 152.913 329.289 155.351 331.383 157.694C332.261 158.686 333.176 159.696 334.118 160.683L337.577 155.438L329.434 146.577Z" fill="#FFAA9F"/>
<path d="M365.428 137.766C365.128 150.66 356.25 160.906 345.597 160.659C334.947 160.409 326.553 149.762 326.848 136.868C327.149 123.974 336.029 113.728 346.677 113.978C357.334 114.227 365.726 124.875 365.428 137.766Z" fill="#FFC8BB"/>
<path d="M340.814 131.269C341.339 130.741 342.218 131.269 342.806 131.504C347.26 133.496 351.421 135.839 356.165 137.187C359.178 138.008 362.264 138.407 365.363 138.775C365.382 138.436 365.421 138.107 365.428 137.766C365.726 124.874 357.334 114.224 346.677 113.98C336.026 113.728 327.148 123.974 326.848 136.87C326.831 137.708 326.848 138.53 326.906 139.344C328.813 138.613 330.684 141.515 332.553 140.583C334.136 139.821 340.463 131.564 340.814 131.269Z" fill="#FFAA9F"/>
<path d="M334.829 108.691C344.743 102.627 373.421 110.678 372.901 123.688C372.38 136.698 356.853 135.686 338.242 127.006C338.242 127.006 334.904 144.238 327.962 148.118C327.962 148.118 319.604 141.611 321.62 127.038C323.683 112.123 330.961 107.079 334.829 108.691Z" fill="#633870"/>
<path d="M360.173 117.799C352.73 116.925 346.599 114.737 340.03 119.113C331.534 125.063 327.429 133.767 323.938 142.841C325.8 146.421 327.961 148.118 327.961 148.118C334.901 144.238 338.241 127.006 338.241 127.006C356.852 135.686 372.379 136.698 372.9 123.688C372.984 121.408 372.166 119.283 370.729 117.356C367.345 117.857 363.859 118.053 360.173 117.799Z" fill="#9B68C4"/>
<path d="M344.358 145.811L335.013 137.567C334.788 137.359 334.435 137.388 334.231 137.616C334.026 137.843 334.057 138.192 334.282 138.397L343.439 146.467L338.774 155.922L327.776 147.208C327.539 147.019 327.188 147.055 327.001 147.298C326.813 147.537 326.851 147.883 327.091 148.074L338.271 156.936L337.579 158.34C337.579 158.34 348.05 165.265 355.558 159.894C361.418 155.704 363.916 146.225 363.916 146.225C357.148 144.105 346.98 145.419 344.358 145.811Z" fill="#FFFDE6"/>
<path d="M410.909 263.73C410.909 263.73 423.212 257.381 425.41 257.986C427.613 258.589 423.626 263.471 425.265 264.34C426.903 265.206 432.601 269.759 432.558 271.695C432.507 273.629 430.97 280.501 424.904 279.806C418.841 279.112 410.713 272.015 408.544 270.028C406.385 268.048 355.618 252.491 349.62 249.035C343.62 245.581 323.653 212.779 321.001 208.018C318.348 203.259 327.601 173.904 331.111 177.3C334.628 180.698 357.429 234.018 359.568 237.107C367.914 241.81 382.795 248.425 410.909 263.73Z" fill="#FFC8BB"/>
<path d="M350.639 236.996C341.506 229.136 343.031 219.302 346.916 209.664C340.189 194.785 332.967 179.093 331.11 177.3C327.601 173.904 318.35 203.259 321 208.018C323.653 212.779 343.619 245.581 349.62 249.035C354.306 251.739 386.333 261.825 401.139 267.053C399.924 266.322 398.712 265.613 397.489 264.872C382.371 255.977 363.983 248.858 350.639 236.996Z" fill="#FFAA9F"/>
<path d="M327.429 111.811C327.429 111.811 321.085 93.3964 308.486 93.7522C295.888 94.1128 289.326 114.796 289.423 129.34C289.52 143.883 285.736 157.256 279.475 155.806C279.475 155.806 287.346 170.481 300.964 165.204C314.576 159.925 315.019 130.151 311.839 117.49C308.661 104.828 326.061 116.735 326.061 116.735L327.429 111.811Z" fill="#633870"/>
<path d="M347.471 199.871L329.08 225.332L322.16 214.97C322.16 214.97 314.886 237.804 316.36 267.576C316.36 267.576 288.941 271.279 265.448 264.003C265.448 264.003 275.411 199.527 283.389 183.23C291.364 166.933 314.744 152.04 320.645 154.47C326.546 156.9 341.645 189.259 347.471 199.871Z" fill="#0BC1B4"/>
<path d="M309.375 200.127C295.799 197.934 303.682 245.233 305.432 252.237C306.969 257.875 308.973 263.054 311.495 268.053C314.557 267.816 316.358 267.576 316.358 267.576C314.882 237.804 322.157 214.969 322.157 214.969L323.281 216.654C319.822 208.504 314.736 200.861 309.375 200.127Z" fill="#07AC9B"/>
<path d="M335.292 141.118C335.205 145.078 331.915 148.208 327.963 148.116C324.008 148.024 320.873 144.742 320.963 140.784C321.055 136.829 324.339 133.695 328.292 133.787C332.249 133.881 335.382 137.163 335.292 141.118Z" fill="#FFC8BB"/>
<path d="M327.144 137.02C327.376 137.47 327.921 137.555 328.294 137.875C329.013 138.485 329.705 138.925 330.266 139.714C331.348 141.229 330.441 144.064 328.867 144.906C327.81 145.472 328.541 147.104 329.664 146.801C335.086 145.337 333.265 135.268 327.631 136.033C327.318 136.076 327.084 136.449 327.086 136.744C327.093 136.843 327.093 136.928 327.144 137.02Z" fill="#FFAA9F"/>
<path d="M953.126 694.607C955.515 651.578 957.906 609.738 956.708 566.71C955.515 530.853 955.515 484.234 937.586 453.158C923.24 429.251 901.727 432.836 877.82 434.031C845.548 435.227 816.86 430.447 785.786 418.494C766.662 410.127 736.779 389.807 715.261 401.759C694.941 413.712 688.965 449.571 678.206 468.695C666.254 492.602 650.714 503.359 623.223 502.163C600.511 499.774 578.998 493.795 563.459 515.313C541.941 547.585 546.724 601.376 547.919 637.232C547.919 656.354 549.115 676.674 551.504 694.605L953.126 694.607Z" fill="#E9FFFF"/>
<path d="M1002.25 651.195C993.425 646.112 982.93 658.57 974.935 660.867C965.933 663.452 960.449 657.97 966.536 648.934C973.255 638.984 986.401 639.659 992.852 629.164C999.999 617.538 995.855 608.575 983.078 608.972C974.287 609.256 964.871 617.306 957.14 609.498C947.768 600.024 957.135 587.254 960.468 577.148C963.777 567.13 965.026 553.411 955.298 547.323C944.902 540.812 935.862 546.945 931.718 557.983C927.228 569.962 937.415 611.862 914.419 602.205C906.104 598.712 902.181 586.264 891.683 588.902C878.85 592.131 883.32 611.381 890.708 618.274C898.654 625.691 932.715 626.112 921.356 645.345C911.659 661.758 892.833 641.859 881.287 640.797C874.563 640.177 869.933 644.352 870.448 652.11C871.078 661.579 882.788 672.67 888.846 678.859C899.985 690.223 913.044 693.65 927.598 696.184C935.314 697.528 947.16 698.358 954.332 694.27C963.491 689.042 984.634 688.824 993.808 680.778C999.755 675.555 1014.12 658.045 1002.25 651.195Z" fill="#C3E6EA"/>
<path d="M764.395 644.67C762.511 637.839 759.043 634.973 752.621 638.841C743.562 644.297 744.157 657.803 735.221 663.298C728.182 667.628 718.527 664.522 722.484 655.288C724.408 650.806 729.615 648.77 733.117 645.909C737.113 642.641 740.739 638.33 743.775 634.162C747.892 628.503 758.055 612.855 748.352 607.339C734.354 599.378 736.177 639.461 723.416 626.935C718.207 621.816 720.606 608.389 721.388 602.021C722.838 590.245 726.263 574.885 718.411 564.673C710.992 555.04 693.196 553.127 688.155 566.721C683.822 578.436 694.77 592.358 700.344 601.704C703.955 607.76 714.071 625.751 704.125 631.841C696.014 636.806 688.598 620.939 684.463 616.648C678.361 610.304 660.402 601.426 655.435 614.431C651.53 624.657 663.318 632.732 670.071 637.142C677.793 642.181 696.009 650.747 695.881 661.719C695.789 669.908 687.252 670.053 681.317 668.073C672.881 665.241 642.393 635.138 642.456 662.056C642.488 677.656 654.999 689.654 668.621 694.677C683.212 700.057 718.648 697.985 718.648 697.985C733.81 702.127 748.33 685.556 755.56 674.429C761.064 665.948 767.289 655.189 764.395 644.67Z" fill="#C3E6EA"/>
<path d="M790.193 671.229C782.602 668.264 774.581 679.374 767.237 676.804C757.741 673.475 766.632 665.638 770.132 661.823C773.411 658.253 777.989 651.081 772.656 647.39C768.781 644.718 761.186 651.253 758.637 646.373C756.291 641.883 763.809 634.039 761.871 628.164C760.377 623.621 752.465 619.225 748.253 622.382C740.924 627.888 750.093 639.463 749.594 645.654C749.088 651.894 744.107 650.6 738.944 650.561C734.13 650.517 728.001 649.009 730.078 657.113C732.268 665.665 738.453 661.235 743.383 662.702C747.5 663.922 748.849 668.242 744.429 671.938C739.854 675.768 733.665 670.813 729.582 673.011C715.901 680.357 742.011 693.367 746.936 694.616C751.666 695.811 759.528 697.547 764.151 695.628C771.628 695.613 779.087 693.372 785.313 688.891C790.042 685.478 799.25 674.761 790.193 671.229Z" fill="white"/>
<path d="M968.68 696.367C968.68 699.049 966.509 701.217 963.824 701.217H539.828C537.149 701.217 534.973 699.049 534.973 696.367C534.973 693.682 537.146 691.506 539.828 691.506H963.824C966.509 691.506 968.68 693.682 968.68 696.367Z" fill="#AFDCE8"/>
<path d="M736.85 383.818C736.85 383.818 732.801 372.398 730.218 370.556C727.638 368.714 728.008 377.554 726.539 377.186C725.055 376.818 717.324 365.994 714.379 370.302C711.43 374.608 708.114 393.396 728.011 394.132C747.904 394.872 788.561 414.406 810.532 416.24C814.949 416.608 837.249 401.502 837.249 401.502L824.895 379.396C824.895 379.396 809.055 389.714 805.001 389.714C800.949 389.714 746.426 384.922 736.85 383.818Z" fill="#FFAA9F"/>
<path d="M798.67 427.367C798.692 437.739 689.103 523.523 672.06 521.843C660.205 520.657 621.753 469.411 602.695 435.996C594.387 421.408 592.988 407.427 595.69 404.922C604.599 396.671 694.965 309.56 708.898 310.369C722.806 311.182 798.636 412.999 798.67 427.367Z" fill="#F4A067"/>
<path d="M708.898 310.369C713.337 310.628 724.118 321.232 736.731 335.985L602.695 435.999C594.63 421.727 593.018 407.396 595.69 404.925C604.6 396.671 694.966 309.56 708.898 310.369Z" fill="#FFC192"/>
<path d="M621.927 435.566L608.941 419.901C608.941 419.901 635.136 394.394 646.439 388.812L657.777 405.85C657.777 405.85 636.363 422.171 621.927 435.566Z" fill="#E0AD3D"/>
<path opacity="0.3" d="M798.67 427.367C798.658 426.643 798.464 425.687 798.089 424.552C769.099 442.867 737.933 456.265 704.705 462.638C671.165 468.904 641.252 463.86 613.482 453.75C633.638 485.003 662.105 520.843 672.06 521.843C689.103 523.525 798.692 437.738 798.67 427.367Z" fill="#E0AD3D"/>
<path opacity="0.5" d="M722.057 427.168L721.825 426.856C719.457 423.661 715.863 426.033 714.515 426.926C712.615 428.178 710.018 430.1 707.924 431.687C707.687 431.365 707.449 431.041 707.21 430.712C705.978 429.03 704.707 427.292 703.25 425.636C701.142 423.245 697.949 422.71 695.483 424.334C695.091 424.595 694.72 424.905 694.384 425.261L694.34 425.227C694.205 425.384 694.026 425.539 693.796 425.735C691.283 427.875 690.821 430.409 692.43 433.265C693.713 435.555 695.175 437.823 696.952 440.265C696.71 440.442 696.468 440.621 696.219 440.8C694.539 442.03 692.803 443.303 691.145 444.76C689.659 446.075 688.846 447.849 688.909 449.635C688.964 451.148 689.62 452.542 690.775 453.629L690.741 453.677C690.896 453.808 691.053 453.99 691.247 454.217C693.387 456.727 695.921 457.187 698.777 455.582C700.912 454.379 703.068 453 705.317 451.383C708.256 455.301 710.252 457.913 711.114 458.789C713.67 461.403 716.972 459.225 718.056 458.509C718.78 458.032 719.559 457.46 720.188 457.001C720.515 456.763 720.777 456.562 720.978 456.432L720.98 456.429H720.982C722.168 455.645 722.938 454.389 723.086 452.978C723.301 450.981 722.35 448.979 720.087 446.672C718.923 445.484 717.814 444.206 716.698 442.836C720.723 439.82 723.408 437.765 724.306 436.889C727.23 434.018 724.603 430.535 722.057 427.168Z" fill="#E0AD3D"/>
<g opacity="0.3">
<path d="M687.913 395.318C675.707 409.853 699.917 421.004 710.375 424.688C716.674 426.905 723.332 427.917 729.73 429.865C738.576 432.564 746.987 436.519 755.391 440.336C766.552 445.407 778.921 448.36 789.401 440.005C790.665 438.998 789.537 437.11 788.179 437.057C782.733 436.844 777.8 438.536 772.291 437.788C765.988 436.931 759.228 431.865 753.472 429.236C743.202 424.545 732.673 420.614 721.681 417.978C707.529 414.58 685.692 415.573 688.279 395.473C688.306 395.287 688.027 395.182 687.913 395.318Z" fill="#E0AD3D"/>
</g>
<path d="M816.713 665.646H807.721V684.405H816.713V665.646Z" fill="#FFC8BB"/>
<path d="M819.541 693.157C819.541 693.157 805.071 694.193 803.602 694.377C802.135 694.561 776.955 694.377 774.569 694.377C772.18 694.377 774.014 686.184 780.816 684.402C787.612 682.616 792.785 683.311 795.59 682.548C796.152 682.391 818.011 683.078 818.011 683.078C818.011 683.078 820.424 691.194 819.541 693.157Z" fill="#EB3E51"/>
<path d="M804.26 683.199C804.26 683.199 810.549 678.821 809.641 675.994C808.721 673.162 805.916 674.868 802.266 677.654C798.621 680.437 798.483 681.394 795.588 682.548L797.732 685.876L804.26 683.199Z" fill="#EB3E51"/>
<path d="M819.892 695.401C817.52 696.337 795.459 696.456 792.719 696.313C786.266 695.972 779.816 696.149 773.382 695.57C771.514 695.401 771.492 692.445 773.382 692.615C781.491 693.343 789.708 693.314 797.834 693.583C804.335 693.796 814.143 692.339 818.793 692.329C820.351 692.334 821.286 694.854 819.892 695.401Z" fill="#FFFDE6"/>
<path d="M787.172 694.461C787.172 694.461 787.492 684.14 784.234 681.909C784.234 681.909 773.332 683.446 772.812 693.837C772.812 693.837 780.087 694.824 787.172 694.461Z" fill="#FFFDE6"/>
<path d="M798.079 679.399C799.698 679.559 801.172 679.687 802.586 680.544C804.118 681.481 805.36 682.815 806.185 684.407C807.105 686.194 804.372 687.774 803.506 685.973C802.864 684.664 801.986 683.708 800.768 682.919C799.655 682.19 798.699 681.283 797.638 680.464C797.22 680.138 797.563 679.353 798.079 679.399Z" fill="#FFFDE6"/>
<path d="M792.845 680.207C794.246 680.316 795.708 681.011 796.422 682.277C796.851 683.037 797.136 683.899 797.374 684.736C797.654 685.709 797.507 686.324 797.131 687.227C796.887 687.788 796.066 688.248 795.573 687.633C795.241 687.232 794.617 686.711 794.539 686.186C794.44 685.537 794.316 684.91 794.145 684.281C793.83 683.109 793.474 681.722 792.574 680.868C792.332 680.653 792.501 680.178 792.845 680.207Z" fill="#FFFDE6"/>
<path d="M789.191 680.128C790.29 681.607 791.021 683.223 791.57 684.983C792.115 686.68 792.192 688.95 790.684 690.076C790.309 690.349 789.643 690.328 789.273 690.076C787.821 689.117 788.07 687.6 787.893 686.043C787.69 684.267 787.884 682.672 787.342 680.9C786.983 679.731 788.552 679.254 789.191 680.128Z" fill="#FFFDE6"/>
<path d="M870.41 665.646H861.411V684.404H870.41V665.646Z" fill="#FFC8BB"/>
<path d="M873.236 693.157C873.236 693.157 858.769 694.193 857.295 694.377C855.828 694.561 830.651 694.377 828.262 694.377C825.868 694.377 827.705 686.183 834.506 684.402C841.313 682.616 846.476 683.31 849.283 682.548C849.845 682.39 871.702 683.078 871.702 683.078C871.702 683.078 874.115 691.194 873.236 693.157Z" fill="#EB3E51"/>
<path d="M857.953 683.199C857.953 683.199 864.244 678.82 863.329 675.993C862.417 673.161 859.606 674.867 855.959 677.653C852.311 680.437 852.178 681.393 849.283 682.548L851.43 685.876L857.953 683.199Z" fill="#EB3E51"/>
<path d="M873.591 695.4C871.221 696.337 849.153 696.456 846.414 696.313C839.965 695.971 833.52 696.148 827.081 695.57C825.208 695.4 825.186 692.445 827.081 692.614C835.178 693.343 843.402 693.314 851.53 693.582C858.029 693.795 867.84 692.338 872.487 692.329C874.046 692.333 874.982 694.853 873.591 695.4Z" fill="#FFFDE6"/>
<path d="M851.771 679.399C853.395 679.559 854.866 679.687 856.278 680.544C857.807 681.48 859.051 682.814 859.877 684.407C860.801 686.193 858.059 687.774 857.188 685.973C856.558 684.663 855.677 683.707 854.457 682.918C853.342 682.19 852.388 681.282 851.328 680.464C850.909 680.137 851.258 679.353 851.771 679.399Z" fill="#FFFDE6"/>
<path d="M846.538 680.207C847.937 680.316 849.412 681.01 850.118 682.276C850.539 683.036 850.827 683.898 851.067 684.736C851.348 685.709 851.193 686.323 850.823 687.226C850.583 687.788 849.755 688.248 849.269 687.633C848.942 687.231 848.31 686.711 848.228 686.185C848.131 685.537 848.008 684.91 847.838 684.28C847.521 683.109 847.165 681.722 846.265 680.868C846.025 680.652 846.197 680.178 846.538 680.207Z" fill="#FFFDE6"/>
<path d="M842.881 680.127C843.975 681.606 844.708 683.223 845.27 684.983C845.8 686.679 845.884 688.95 844.376 690.075C844.001 690.349 843.343 690.327 842.963 690.075C841.515 689.117 841.77 687.599 841.583 686.043C841.375 684.266 841.574 682.671 841.036 680.899C840.673 679.73 842.244 679.253 842.881 680.127Z" fill="#FFFDE6"/>
<path d="M813.531 496.453C813.531 497.557 803.956 560.549 801.003 584.132C798.062 607.707 795.847 667.97 807.267 672.097C818.689 676.228 823.475 670.332 825.687 659.648C827.902 648.969 835.633 569.023 842.635 558.707C842.635 558.707 840.791 618.769 843.373 633.86C845.946 648.95 854.423 669.979 863.63 670.153C872.845 670.332 876.894 667.386 877.633 657.813C878.373 648.231 872.109 594.811 871.739 582.287C871.368 569.759 873.949 493.137 873.949 493.137L813.531 496.453Z" fill="#633870"/>
<path d="M844.731 533.708C840.014 539.905 837.651 546.397 836.177 553.772C832.639 572.063 831.167 590.343 831.167 608.937C831.167 612.558 831.065 616.179 830.939 619.8C834.268 594.077 838.569 564.691 842.635 558.707C842.635 558.707 842.415 565.809 842.233 575.735C842.379 574.506 842.497 573.271 842.669 572.061C844.431 558.489 847.094 547.28 844.731 533.708Z" fill="#3B2244"/>
<path d="M873.95 493.137L813.53 496.455C813.53 496.724 812.961 500.681 812.061 506.832C820.772 507.783 829.362 508.34 837.943 508.34C844.73 508.047 853.284 506.87 857.113 513.653C862.428 522.504 862.428 536.073 863.019 546.101C863.9 558.787 861.833 572.649 866.557 585.044C868.063 589.058 870.237 592.737 872.747 596.183C872.212 590.103 871.815 585.136 871.737 582.29C871.369 569.759 873.95 493.137 873.95 493.137Z" fill="#3B2244"/>
<path d="M840.858 694.461C840.858 694.461 841.185 684.14 837.937 681.909C837.937 681.909 827.018 683.446 826.515 693.837C826.515 693.837 833.783 694.824 840.858 694.461Z" fill="#FFFDE6"/>
<path d="M833.576 343.019L841.356 368.874L824.015 373.5L822.863 353.952L833.576 343.019Z" fill="#FFC8BB"/>
<path d="M833.576 343.019L822.863 353.952L823.495 364.832C828.106 362.07 833.046 359.909 838.11 358.071L833.576 343.019Z" fill="#FFAA9F"/>
<path d="M792.589 340.61C792.589 353.531 801.22 363.999 811.887 363.999C822.537 363.999 831.178 353.531 831.178 340.61C831.178 327.692 822.54 317.221 811.887 317.221C801.223 317.221 792.589 327.692 792.589 340.61Z" fill="#FFC8BB"/>
<path d="M811.887 317.221C802.803 317.221 795.202 324.838 793.152 335.082C794.617 335.757 796.221 336.222 798.061 336.379C802.754 336.655 808.278 333.615 812.427 334.445C815.745 335 817.398 339.695 819.332 341.905C822.568 345.604 825.625 347.738 829.931 348.828C830.72 346.269 831.18 343.507 831.18 340.61C831.178 327.692 822.537 317.221 811.887 317.221Z" fill="#FFAA9F"/>
<path d="M813.41 348.994L822.753 340.75C822.98 340.545 823.329 340.571 823.535 340.799C823.741 341.029 823.709 341.377 823.484 341.581L814.327 349.653L818.994 359.105L829.99 350.391C830.225 350.202 830.576 350.239 830.765 350.481C830.954 350.72 830.917 351.066 830.678 351.258L819.495 360.119L820.32 361.956C820.32 361.956 809.716 368.448 802.21 363.074C796.35 358.882 793.853 349.406 793.853 349.406C800.62 347.288 810.789 348.602 813.41 348.994Z" fill="#FFFDE6"/>
<path d="M836.426 352.475L824.486 347.271C824.486 347.271 824.513 348.801 823.014 349.014C821.521 349.227 820.127 346.017 820.127 333.17C820.127 329.532 814.453 329.851 808.351 332.206C802.252 334.561 790.544 336.752 790.275 329.265C789.997 321.336 797.539 315.401 802.14 314.222C806.741 313.043 816.162 308.762 823.339 309.618C830.513 310.475 827.616 313.794 827.616 313.794C827.616 313.794 836.31 311.121 838.348 317.223C840.376 323.323 843.922 339.867 836.426 352.475Z" fill="#FFDF56"/>
<path d="M838.343 317.222C836.305 311.12 827.61 313.792 827.61 313.792C827.61 313.792 830.508 310.473 823.333 309.616C816.157 308.76 806.739 313.041 802.135 314.22C801.08 314.489 799.869 315.024 798.63 315.76C798.279 316.81 798.175 317.882 798.47 318.969C799.99 324.911 810.219 323.946 814.494 323.115C818.642 322.285 825.684 318.279 829.692 320.63C834.668 323.253 835.491 332.647 836.043 337.483C836.61 342.523 836.355 347.315 835.436 352.045L836.421 352.473C843.922 339.867 840.376 323.324 838.343 317.222Z" fill="#FFC545"/>
<path d="M824.015 344.706C824.015 348.665 827.217 351.873 831.177 351.873C835.139 351.873 838.344 348.665 838.344 344.706C838.344 340.748 835.139 337.541 831.177 337.541C827.217 337.541 824.015 340.748 824.015 344.706Z" fill="#FFC8BB"/>
<path d="M831.679 338.947C828.47 339.923 826.105 341.668 826.185 345.298C826.248 348.288 829.138 350.749 832.091 350.275C832.647 350.183 832.667 349.391 832.236 349.14C830.43 348.065 828.438 347.801 828.104 345.298C827.765 342.791 830.108 340.862 831.955 339.61C832.287 339.39 832.086 338.824 831.679 338.947Z" fill="#FFAA9F"/>
<path d="M711.486 407.295C711.486 407.295 707.43 395.875 704.854 394.033C702.274 392.191 702.642 401.03 701.168 400.663C699.696 400.297 691.96 389.473 689.012 393.779C686.069 398.085 682.755 416.875 702.644 417.611C722.541 418.344 763.2 437.88 785.161 439.714C789.585 440.085 811.89 424.979 811.89 424.979L799.528 402.872C799.528 402.872 783.691 413.191 779.637 413.191C775.588 413.191 721.062 408.403 711.486 407.295Z" fill="#FFC8BB"/>
<path d="M811.887 424.981L799.526 402.875C799.526 402.875 795.283 405.637 790.633 408.302C790.805 415.735 791.037 423.105 791.037 430.461C778.052 431.541 764.906 431.354 751.828 431.178C764.252 435.309 776.253 438.974 785.156 439.719C789.583 440.085 811.887 424.981 811.887 424.981Z" fill="#FFAA9F"/>
<path d="M790.265 403.61L804.691 433.818L818.686 426.082L804.473 504.551L875.787 499.395C875.787 499.395 873.575 418.767 868.79 392.771C863.997 366.773 842.501 362.254 833.027 364.002C823.556 365.749 813.792 385.931 790.265 403.61Z" fill="#F4EAD7"/>
<path d="M860.659 453.465C862.918 469.225 867.546 484.391 871.31 499.718L875.787 499.393C875.787 499.393 873.575 418.765 868.79 392.769C863.997 366.771 842.501 362.252 833.027 364C832.117 364.167 831.2 364.554 830.275 365.04C854.596 385.726 856.479 423.17 860.659 453.465Z" fill="#E8DFCA"/>
<path d="M830.276 427.208C831.452 419.838 834.408 410.691 833.519 403.021C825.556 410.986 815.821 417.473 806.972 424.555C805.384 425.744 803.779 427.109 802.157 428.527L804.691 433.819L818.687 426.083L806.149 495.313C812.304 484.106 817.752 472.435 822.02 460.548C826.142 449.924 828.504 438.718 830.276 427.208Z" fill="#E8DFCA"/>
<path d="M634.032 596.943C634.032 596.943 653.285 581.796 658.736 575.309C664.196 568.827 672.869 546.292 674.248 543.516C675.645 540.737 667.667 533.8 669.054 528.601C670.431 523.402 671.453 529.642 674.411 528.601C677.373 527.563 677.717 518.2 679.445 516.46C681.188 514.732 689.163 533.11 681.527 544.211C681.527 544.211 674.246 584.432 672.164 594.832C670.085 605.243 645.818 629.169 645.818 629.169L634.032 596.943Z" fill="#FFAA9F"/>
<path d="M651.659 592.455C660.351 583.407 663.483 570.543 669.389 559.421C672.325 554.326 673.467 550.191 673.019 546.348C670.098 553.275 663.306 569.894 658.738 575.311C653.288 581.798 634.035 596.945 634.035 596.945L636.872 604.722C642.284 601.159 647.452 597.231 651.659 592.455Z" fill="#FFC8BB"/>
<path d="M564.24 732.848C564.24 732.848 549.327 745.4 553.188 757.44C557.058 769.477 669.233 762.414 677.518 762.133C685.808 761.859 702.11 769.474 706.532 769.474C710.957 769.474 698.799 757.05 691.615 750.469C684.431 743.897 681.948 753.291 681.948 753.291L564.24 732.848Z" fill="#FFAA9F"/>
<path d="M682.792 749.81C682.792 749.81 692.832 756.268 696.584 761.336C700.333 766.395 701.033 769.099 701.033 769.099C701.033 769.099 709.497 773.727 711.153 773.552C712.818 773.378 707.488 764.212 699.721 756.268C691.958 748.331 686.633 744.746 682.792 749.81Z" fill="#EB3E51"/>
<path d="M578.574 744.543C578.574 744.543 563.662 757.096 567.525 769.135C571.393 781.167 683.569 774.104 691.86 773.828C700.157 773.55 716.447 781.165 720.871 781.165C725.294 781.165 713.135 768.74 705.952 762.164C698.763 755.588 696.277 764.986 696.277 764.986L578.574 744.543Z" fill="#FFC8BB"/>
<path d="M697.129 761.506C697.129 761.506 707.169 767.969 710.918 773.027C714.668 778.091 715.37 780.795 715.37 780.795C715.37 780.795 723.832 785.423 725.487 785.244C727.152 785.074 721.823 775.913 714.05 767.969C706.288 760.022 700.965 756.447 697.129 761.506Z" fill="#F7708E"/>
<path d="M580.789 562.185C580.789 562.185 570.011 560.251 569.461 551.133C568.909 542.018 580.511 527.376 597.086 525.164C613.664 522.951 612.829 533.408 612.829 533.408C612.829 533.408 620.853 527.923 625.548 534.558C630.247 541.19 629.136 574.345 642.4 584.148C655.664 593.963 671.966 582.357 676.112 612.197C680.256 642.036 615.581 652.442 594.051 624.076C570.567 593.131 580.789 562.185 580.789 562.185Z" fill="#EB3E51"/>
<path d="M631.852 619.109C630.157 607.443 627.205 595.764 623.552 584.523C620.737 575.802 617.644 565.116 610.753 558.646C605.411 553.582 598.657 554.287 592.195 556.117C587.354 557.564 582.622 559.384 577.919 561.325C579.565 561.96 580.79 562.185 580.79 562.185C580.79 562.185 578.045 570.538 578.677 582.897C585.042 589.122 595.38 592.38 603.438 591.412C604.992 599.709 607.526 607.581 610.753 615.314C613.425 621.782 615.816 627.971 617.503 634.721C617.724 635.605 618.266 637.202 618.767 638.943C623.121 639.988 627.652 640.555 632.183 640.688C633.04 633.472 632.878 626.347 631.852 619.109Z" fill="#C22C45"/>
<path d="M630.063 585.436L613.582 569.916L605.229 578.586L617.643 598.388L630.063 585.436Z" fill="#FFAA9F"/>
<path d="M607.035 600.336C607.035 600.336 620.449 636.786 623.557 654.197C623.557 654.197 623.487 680.439 623.557 689.284C623.557 689.284 576.367 709.178 544.872 745.923C544.872 745.923 575.537 770.515 641.301 759.187C707.061 747.854 707.334 743.435 707.334 743.435C707.334 743.435 692.688 706.413 672.242 689.831C672.242 689.831 668.103 634.107 660.914 615.237C653.725 596.364 623.758 579.506 623.758 579.506C623.758 579.506 611.253 584.916 607.035 600.336Z" fill="#9B68C4"/>
<path d="M672.243 689.833C672.243 689.833 668.104 634.109 660.915 615.239C653.727 596.367 623.759 579.508 623.759 579.508C623.759 579.508 614.992 583.328 609.664 593.634C612.697 619.318 631.373 639.87 651.657 656.77C658.265 662.334 663.135 668.243 663.827 676.937C664.522 685.627 660.697 690.492 652.006 691.891C639.487 693.97 628.362 694.669 616.197 699.535C619.324 699.191 636.708 696.751 638.1 700.924C639.838 705.794 623.841 712.048 621.408 713.092C602.638 721.786 578.3 727 565.784 744.383C563.639 747.404 561.734 750.599 559.955 753.881C575.119 759.872 601.902 765.974 641.3 759.19C707.059 747.857 707.333 743.437 707.333 743.437C707.333 743.437 692.691 706.416 672.243 689.833Z" fill="#7551AD"/>
<path d="M577.189 562.219C577.189 575.045 585.823 585.436 596.485 585.436C607.135 585.436 615.774 575.045 615.774 562.219C615.774 549.397 607.138 539.001 596.485 539.001C585.823 539.001 577.189 549.397 577.189 562.219Z" fill="#FFC8BB"/>
<path d="M593.595 560.053C599.644 559.206 605.831 558.083 611.594 555.689C612.625 555.248 613.605 554.742 614.576 554.236C611.872 545.351 604.795 539 596.483 539C586.014 539 577.511 549.032 577.211 561.544C582.679 561.723 588.326 560.82 593.595 560.053Z" fill="#FFAA9F"/>
<path d="M597.819 570.224L606.913 561.704C607.13 561.486 607.484 561.505 607.694 561.728C607.905 561.951 607.888 562.299 607.668 562.507L598.758 570.851L603.708 580.16L614.435 571.122C614.668 570.928 615.016 570.952 615.212 571.187C615.408 571.42 615.382 571.768 615.149 571.967L604.24 581.162L605.325 583.336C605.325 583.336 594.716 589.779 587.05 584.635C581.067 580.622 578.283 571.224 578.283 571.224C584.985 568.91 595.19 569.912 597.819 570.224Z" fill="#FFFDE6"/>
<path d="M577.215 561.038C577.215 561.038 589.361 560.532 602.894 550.86C602.894 550.86 610.073 559.98 614.224 586.78C618.368 613.579 644.724 649.107 665.313 632.635C691.889 611.376 644.058 589.965 636.603 581.229C629.139 572.499 622.42 543.954 616.388 540.362C610.356 536.768 595.436 534.836 584.382 542.299C573.33 549.754 577.215 561.038 577.215 561.038Z" fill="#EB3E51"/>
<path d="M638.1 626.868C632.189 620.613 629.754 611.57 626.274 603.575C622.454 595.232 619.325 587.237 617.935 578.199C616.544 570.546 616.89 559.078 611.681 552.467C608.98 548.941 606.031 549.512 603.284 551.422C604.826 553.728 610.647 563.672 614.222 586.777C617.529 608.16 634.968 635.063 652.345 636.719C646.85 634.267 641.9 631.128 638.1 626.868Z" fill="#C22C45"/>
<path d="M607.849 564.323C607.849 568.285 611.058 571.49 615.021 571.49C618.968 571.49 622.183 568.285 622.183 564.323C622.183 560.365 618.968 557.161 615.021 557.161C611.058 557.161 607.849 560.365 607.849 564.323Z" fill="#FFC8BB"/>
<path d="M614.768 558.712C612.262 560.082 610.626 561.881 611.076 564.872C611.464 567.431 614.889 569.764 617.331 568.97C618.142 568.707 618.297 567.349 617.331 567.17C615.646 566.852 613.773 566.039 613.182 564.287C612.621 562.626 614.252 560.501 615.264 559.366C615.581 559.015 615.186 558.48 614.768 558.712Z" fill="#FFAA9F"/>
<path d="M529.403 685.138C529.403 685.138 517.242 678.506 515.03 679.058C512.817 679.614 516.688 684.588 515.03 685.416C513.372 686.244 507.572 690.669 507.572 692.598C507.572 694.532 508.954 701.437 515.03 700.89C521.112 700.338 529.403 693.43 531.608 691.492C533.817 689.558 584.931 675.197 591.013 671.876C597.089 668.563 617.813 636.23 620.574 631.537C623.339 626.839 614.775 597.277 611.178 600.591C607.589 603.905 583.551 656.683 581.336 659.723C572.896 664.23 557.853 670.497 529.403 685.138Z" fill="#FFC8BB"/>
<path d="M612.471 600.596C608.09 618.57 602.128 636.039 593.596 652.597C585.471 669.182 570.038 676.032 554.128 683.964C569.462 679.247 587.552 673.762 591.011 671.876C597.086 668.563 617.81 636.23 620.572 631.537C623.051 627.335 616.465 603.273 612.471 600.596Z" fill="#FFAA9F"/>
</svg>
