<svg width="2800" height="1796" viewBox="0 0 2800 1796" fill="none" xmlns="http://www.w3.org/2000/svg">
<g clip-path="url(#clip0_40_1841)">
<rect width="2800" height="1796" fill="white"/>
<rect width="2800" height="1796" fill="white"/>
<path d="M2537 1146.52H1302V1147.14H2537V1146.52Z" fill="#EBEBEB"/>
<path d="M2413.25 1186.28H2331.44V1186.9H2413.25V1186.28Z" fill="#EBEBEB"/>
<path d="M2120.11 1192.98H2098.64V1193.6H2120.11V1192.98Z" fill="#EBEBEB"/>
<path d="M2328.97 1163.34H2281.57V1163.96H2328.97V1163.34Z" fill="#EBEBEB"/>
<path d="M1538.26 1167.49H1431.57V1168.11H1538.26V1167.49Z" fill="#EBEBEB"/>
<path d="M1575.9 1167.49H1560.25V1168.11H1575.9V1167.49Z" fill="#EBEBEB"/>
<path d="M1858.11 1177.92H1626.73V1178.54H1858.11V1177.92Z" fill="#EBEBEB"/>
<path d="M1887.42 1036.37H1410.47C1402.7 1036.37 1396.37 1030.04 1396.37 1022.27V351.83C1396.37 344.057 1402.7 337.731 1410.47 337.731H1887.42C1895.2 337.731 1901.52 344.057 1901.52 351.83V1022.27C1901.52 1030.04 1895.2 1036.37 1887.42 1036.37ZM1410.47 338.351C1403.04 338.351 1396.99 344.398 1396.99 351.833V1022.27C1396.99 1029.7 1403.04 1035.75 1410.47 1035.75H1887.42C1894.86 1035.75 1900.9 1029.7 1900.9 1022.27V351.83C1900.9 344.398 1894.86 338.349 1887.42 338.349L1410.47 338.351Z" fill="#EBEBEB"/>
<path d="M2421.68 1036.37H1944.72C1936.95 1036.37 1930.63 1030.04 1930.63 1022.27V351.83C1930.63 344.057 1936.95 337.731 1944.72 337.731H2421.68C2429.45 337.731 2435.77 344.057 2435.77 351.83V1022.27C2435.78 1030.04 2429.45 1036.37 2421.68 1036.37ZM1944.72 338.351C1937.29 338.351 1931.24 344.398 1931.24 351.833V1022.27C1931.24 1029.7 1937.29 1035.75 1944.72 1035.75H2421.68C2429.11 1035.75 2435.16 1029.7 2435.16 1022.27V351.83C2435.16 344.398 2429.11 338.349 2421.68 338.349L1944.72 338.351Z" fill="#EBEBEB"/>
<path d="M1802.16 576.04L1705.76 519.956H1631.48L1533.48 573.382V936.86H1802.16V576.04Z" fill="#E0E0E0"/>
<path d="M1530.71 576.04L1533.48 573.382C1569.33 538.93 1616.55 519.956 1666.44 519.956C1716.32 519.956 1763.55 538.933 1799.39 573.384L1802.16 576.04V936.86H1530.71V576.04ZM1784.15 583.766C1752.03 554.202 1710.38 537.962 1666.44 537.962C1622.5 537.962 1580.84 554.2 1548.72 583.766V918.853H1784.16V583.766H1784.15Z" fill="#FAFAFA"/>
<path d="M1673.19 921.02H1659.68V800.392H1545.31V786.889H1659.68V663.51H1545.31V650.006H1659.68V535.63H1673.19V650.006H1787.56V663.51H1673.19V786.889H1787.56V800.392H1673.19V921.02Z" fill="#F0F0F0"/>
<path d="M1521.71 572.364L1524.35 569.726C1602.69 491.38 1730.18 491.38 1808.52 569.726L1811.16 572.364V945.863H1521.71V572.364ZM1793.15 579.875C1722.52 511.988 1610.35 511.99 1539.71 579.875V927.856H1793.15V579.875Z" fill="#F0F0F0"/>
<path d="M2308.28 576.04L2211.88 519.956H2137.61L2039.61 573.382V936.86H2308.28V576.04Z" fill="#E0E0E0"/>
<path d="M2036.84 576.04L2039.6 573.382C2075.45 538.93 2122.67 519.956 2172.56 519.956C2222.45 519.956 2269.67 538.933 2305.52 573.384L2308.28 576.04V936.86H2036.84V576.04ZM2290.28 583.766C2258.15 554.202 2216.5 537.962 2172.56 537.962C2128.62 537.962 2086.97 554.2 2054.85 583.766V918.853H2290.28V583.766Z" fill="#FAFAFA"/>
<path d="M2179.32 921.02H2165.81V800.392H2051.43V786.889H2165.81V663.51H2051.43V650.006H2165.81V535.63H2179.32V650.006H2293.69V663.51H2179.32V786.889H2293.69V800.392H2179.32V921.02Z" fill="#F0F0F0"/>
<path d="M2027.84 572.364L2030.47 569.726C2108.82 491.38 2236.3 491.38 2314.65 569.726L2317.29 572.364V945.863H2027.84V572.364ZM2299.28 579.875C2228.64 511.988 2116.48 511.99 2045.84 579.875V927.856H2299.28V579.875Z" fill="#F0F0F0"/>
<path d="M1960.63 485.093C1966.21 461.439 1951.56 437.737 1927.91 432.151C1904.26 426.566 1880.55 441.213 1874.97 464.867C1869.38 488.52 1884.03 512.223 1907.68 517.808C1931.34 523.394 1955.04 508.746 1960.63 485.093Z" fill="#F0F0F0"/>
<path d="M1954.73 480.929C1958.04 460.53 1944.19 441.31 1923.79 437.999C1903.39 434.688 1884.17 448.541 1880.86 468.94C1877.55 489.339 1891.4 508.559 1911.8 511.87C1932.2 515.18 1951.42 501.327 1954.73 480.929Z" fill="#FAFAFA"/>
<path d="M1916.02 477.897C1915.6 477.897 1915.18 477.79 1914.8 477.576L1897.46 467.765C1896.28 467.093 1895.86 465.586 1896.53 464.398C1897.2 463.212 1898.71 462.793 1899.9 463.467L1913.55 471.191V449.267C1913.55 447.903 1914.65 446.797 1916.02 446.797C1917.38 446.797 1918.49 447.903 1918.49 449.267V475.424C1918.49 476.303 1918.02 477.116 1917.26 477.558C1916.88 477.783 1916.45 477.897 1916.02 477.897Z" fill="#E0E0E0"/>
<path d="M1919.5 1258.08C2183.99 1258.08 2398.41 1245.55 2398.41 1230.11C2398.41 1214.66 2183.99 1202.14 1919.5 1202.14C1655.01 1202.14 1440.59 1214.66 1440.59 1230.11C1440.59 1245.55 1655.01 1258.08 1919.5 1258.08Z" fill="#F5F5F5"/>
<path d="M2343.53 999.24C2344.04 1002.87 2334.2 1005.26 2326.17 1006.6C2326.82 1013.19 2331.21 1019.86 2337.27 1026.08C2344.89 1021.79 2355.77 1016.11 2357.77 1017.5C2359.96 1019.01 2348.82 1026.21 2341.85 1030.45C2346.75 1034.8 2352.27 1038.85 2357.63 1042.4C2361.05 1039.21 2365.05 1036.41 2367.43 1037.92C2369.9 1039.5 2369.24 1044.44 2368.02 1048.84C2376.31 1053.68 2382.51 1056.62 2382.51 1056.62C2382.51 1056.62 2385.99 1046.07 2388.05 1033.08C2387.63 1032.25 2387.22 1031.42 2386.84 1030.53C2385.5 1027.44 2386.8 1026.13 2389.01 1025.7C2389.58 1020.01 2389.74 1014.16 2389.14 1008.74C2379.76 1006.77 2368.35 1003.13 2372.62 997.498C2375.2 994.104 2379.92 993.719 2384.83 994.569C2384.14 993.438 2383.38 992.371 2382.51 991.412C2365.44 972.596 2353.52 991.412 2353.52 991.412C2343.6 983.14 2329.66 985.38 2326.65 998.304C2332.22 996.878 2342.89 994.754 2343.53 999.24Z" fill="#80D9A9"/>
<path opacity="0.3" d="M2343.53 999.24C2344.04 1002.87 2334.2 1005.26 2326.17 1006.6C2326.82 1013.19 2331.21 1019.86 2337.27 1026.08C2344.89 1021.79 2355.77 1016.11 2357.77 1017.5C2359.96 1019.01 2348.82 1026.21 2341.85 1030.45C2346.75 1034.8 2352.27 1038.85 2357.63 1042.4C2361.05 1039.21 2365.05 1036.41 2367.43 1037.92C2369.9 1039.5 2369.24 1044.44 2368.02 1048.84C2376.31 1053.68 2382.51 1056.62 2382.51 1056.62C2382.51 1056.62 2385.99 1046.07 2388.05 1033.08C2387.63 1032.25 2387.22 1031.42 2386.84 1030.53C2385.5 1027.44 2386.8 1026.13 2389.01 1025.7C2389.58 1020.01 2389.74 1014.16 2389.14 1008.74C2379.76 1006.77 2368.35 1003.13 2372.62 997.498C2375.2 994.104 2379.92 993.719 2384.83 994.569C2384.14 993.438 2383.38 992.371 2382.51 991.412C2365.44 972.596 2353.52 991.412 2353.52 991.412C2343.6 983.14 2329.66 985.38 2326.65 998.304C2332.22 996.878 2342.89 994.754 2343.53 999.24Z" fill="white"/>
<path d="M2364.83 1137.52L2362.37 1137.32C2362.47 1136.05 2372.48 1010.06 2344.21 998.177C2341.17 996.9 2338.36 996.972 2335.64 998.392C2325.42 1003.71 2320.52 1025.76 2320.47 1025.99L2318.06 1025.46C2318.27 1024.51 2323.25 1002.05 2334.49 996.201C2337.87 994.445 2341.46 994.344 2345.16 995.9C2375.08 1008.46 2365.27 1132.26 2364.83 1137.52Z" fill="#80D9A9"/>
<path d="M2368.4 1134.8C2367.9 1129.13 2356.35 995.814 2377.94 981.663C2383.11 978.272 2387.72 977.546 2391.64 979.531C2401.84 984.674 2403.18 1006.48 2403.23 1007.4L2400.77 1007.54C2400.75 1007.33 2399.46 986.237 2390.53 981.735C2387.46 980.191 2383.67 980.853 2379.29 983.73C2358.93 997.081 2370.74 1133.21 2370.86 1134.58L2368.4 1134.8Z" fill="#80D9A9"/>
<path d="M2371.64 1145.57C2371.48 1141.23 2367.92 1039.19 2387.58 1030.25C2391.46 1028.49 2395.39 1028.46 2399.26 1030.16C2412.75 1036.09 2421.08 1061.22 2421.43 1062.29L2419.08 1063.06C2419 1062.81 2410.74 1037.91 2398.27 1032.42C2395.03 1031 2391.86 1031.02 2388.6 1032.5C2373.53 1039.35 2373.03 1116.38 2374.11 1145.48L2371.64 1145.57Z" fill="#80D9A9"/>
<path d="M2366.64 1140.91L2364.19 1140.63C2367.65 1110.26 2374.27 1029.33 2363.45 1019.67C2361.84 1018.23 2360.39 1017.78 2359.03 1018.3C2351.78 1021.08 2347.36 1047.41 2346.27 1057.32L2343.82 1057.05C2344.24 1053.25 2348.19 1019.82 2358.14 1016C2360.42 1015.12 2362.76 1015.74 2365.09 1017.83C2379.08 1030.3 2367.15 1136.39 2366.64 1140.91Z" fill="#80D9A9"/>
<path d="M2325.42 1083.33H2414.16L2406.75 1182.73H2332.83L2325.42 1083.33Z" fill="#263238"/>
<path d="M2337.51 1046.85C2336.59 1049.27 2329.69 1047.37 2324.28 1045.44C2322.43 1049.73 2322.85 1055.34 2324.45 1061.26C2330.62 1061.22 2339.28 1061.45 2340.04 1062.99C2340.87 1064.68 2331.53 1065.3 2325.78 1065.52C2327.31 1069.89 2329.32 1074.28 2331.41 1078.31C2334.62 1077.51 2338.04 1077.15 2338.99 1078.9C2339.98 1080.72 2337.87 1083.54 2335.61 1085.84C2339.06 1091.66 2341.88 1095.6 2341.88 1095.6C2341.88 1095.6 2347.65 1090.29 2353.37 1082.98C2353.39 1082.33 2353.42 1081.68 2353.49 1081C2353.73 1078.64 2354.98 1078.27 2356.49 1078.76C2358.79 1075.45 2360.9 1071.9 2362.39 1068.35C2357.27 1063.92 2351.49 1057.76 2356.05 1055.76C2358.81 1054.55 2361.85 1055.93 2364.58 1058.13C2364.55 1057.2 2364.45 1056.28 2364.24 1055.39C2360.16 1037.93 2346.36 1045.45 2346.36 1045.45C2343.07 1036.95 2333.71 1033.55 2327.42 1040.49C2331.34 1041.52 2338.65 1043.86 2337.51 1046.85Z" fill="#80D9A9"/>
<path opacity="0.3" d="M2337.51 1046.85C2336.59 1049.27 2329.69 1047.37 2324.28 1045.44C2322.43 1049.73 2322.85 1055.34 2324.45 1061.26C2330.62 1061.22 2339.28 1061.45 2340.04 1062.99C2340.87 1064.68 2331.53 1065.3 2325.78 1065.52C2327.31 1069.89 2329.32 1074.28 2331.41 1078.31C2334.62 1077.51 2338.04 1077.15 2338.99 1078.9C2339.98 1080.72 2337.87 1083.54 2335.61 1085.84C2339.06 1091.66 2341.88 1095.6 2341.88 1095.6C2341.88 1095.6 2347.65 1090.29 2353.37 1082.98C2353.39 1082.33 2353.42 1081.68 2353.49 1081C2353.73 1078.64 2354.98 1078.27 2356.49 1078.76C2358.79 1075.45 2360.9 1071.9 2362.39 1068.35C2357.27 1063.92 2351.49 1057.76 2356.05 1055.76C2358.81 1054.55 2361.85 1055.93 2364.58 1058.13C2364.55 1057.2 2364.45 1056.28 2364.24 1055.39C2360.16 1037.93 2346.36 1045.45 2346.36 1045.45C2343.07 1036.95 2333.71 1033.55 2327.42 1040.49C2331.34 1041.52 2338.65 1043.86 2337.51 1046.85Z" fill="white"/>
<path d="M2403.4 1058.65C2400.6 1058.86 2397.92 1059.5 2395.29 1060.36C2394.61 1058.48 2394.16 1056.53 2394.09 1054.49C2393.53 1036.59 2406.34 1044.14 2413.11 1038.88C2416.49 1036.25 2420.62 1034.57 2424.44 1035.33C2423.87 1036.31 2423.35 1037.33 2422.91 1038.39C2422.2 1040.1 2423.32 1041.89 2425.08 1042.22C2426.73 1042.53 2428.58 1042.38 2430.1 1041.62C2430.58 1041.39 2430.97 1041.04 2431.39 1040.73C2432.34 1042.32 2433.18 1044.28 2433.85 1046.71C2434.54 1049.2 2434.9 1051.78 2435.01 1054.37C2434 1054.59 2433 1054.86 2432.02 1055.21C2430.47 1055.76 2429.65 1058.22 2430.89 1059.47C2431.98 1060.56 2433.23 1061.43 2434.59 1062.06C2434.15 1065 2433.32 1067.8 2432.33 1070.44C2432.03 1070.49 2431.72 1070.53 2431.42 1070.59C2430.77 1070.71 2430.13 1070.88 2429.49 1071.06C2429.13 1071.17 2428.76 1071.29 2428.42 1071.45C2427.53 1071.87 2426.89 1072.63 2426.75 1073.63C2426.61 1074.6 2427.02 1075.61 2427.8 1076.21C2428.22 1076.53 2428.68 1076.78 2429.13 1077.03C2427.09 1080.26 2424.68 1082.82 2422.04 1084.18C2422.04 1084.18 2418.78 1082.76 2414.51 1080.2C2415.04 1079.48 2415.58 1078.77 2416.07 1078.02C2416.66 1077.15 2416.92 1076.26 2416.83 1075.21C2416.75 1074.2 2416.13 1073.32 2415.38 1072.69C2414.65 1072.08 2413.49 1071.81 2412.57 1071.93C2411.67 1072.05 2410.57 1072.6 2410.05 1073.38C2409.45 1074.26 2408.8 1075.1 2408.15 1075.94C2404.88 1073.48 2401.63 1070.5 2399.06 1067.12C2399.16 1067.09 2399.27 1067.06 2399.33 1067.04C2400.99 1066.61 2402.67 1066.33 2404.38 1066.2C2406.5 1066.04 2407.83 1063.9 2407.66 1061.94C2407.48 1059.81 2405.38 1058.5 2403.4 1058.65Z" fill="#80D9A9"/>
<path opacity="0.5" d="M2403.4 1058.65C2400.6 1058.86 2397.92 1059.5 2395.29 1060.36C2394.61 1058.48 2394.16 1056.53 2394.09 1054.49C2393.53 1036.59 2406.34 1044.14 2413.11 1038.88C2416.49 1036.25 2420.62 1034.57 2424.44 1035.33C2423.87 1036.31 2423.35 1037.33 2422.91 1038.39C2422.2 1040.1 2423.32 1041.89 2425.08 1042.22C2426.73 1042.53 2428.58 1042.38 2430.1 1041.62C2430.58 1041.39 2430.97 1041.04 2431.39 1040.73C2432.34 1042.32 2433.18 1044.28 2433.85 1046.71C2434.54 1049.2 2434.9 1051.78 2435.01 1054.37C2434 1054.59 2433 1054.86 2432.02 1055.21C2430.47 1055.76 2429.65 1058.22 2430.89 1059.47C2431.98 1060.56 2433.23 1061.43 2434.59 1062.06C2434.15 1065 2433.32 1067.8 2432.33 1070.44C2432.03 1070.49 2431.72 1070.53 2431.42 1070.59C2430.77 1070.71 2430.13 1070.88 2429.49 1071.06C2429.13 1071.17 2428.76 1071.29 2428.42 1071.45C2427.53 1071.87 2426.89 1072.63 2426.75 1073.63C2426.61 1074.6 2427.02 1075.61 2427.8 1076.21C2428.22 1076.53 2428.68 1076.78 2429.13 1077.03C2427.09 1080.26 2424.68 1082.82 2422.04 1084.18C2422.04 1084.18 2418.78 1082.76 2414.51 1080.2C2415.04 1079.48 2415.58 1078.77 2416.07 1078.02C2416.66 1077.15 2416.92 1076.26 2416.83 1075.21C2416.75 1074.2 2416.13 1073.32 2415.38 1072.69C2414.65 1072.08 2413.49 1071.81 2412.57 1071.93C2411.67 1072.05 2410.57 1072.6 2410.05 1073.38C2409.45 1074.26 2408.8 1075.1 2408.15 1075.94C2404.88 1073.48 2401.63 1070.5 2399.06 1067.12C2399.16 1067.09 2399.27 1067.06 2399.33 1067.04C2400.99 1066.61 2402.67 1066.33 2404.38 1066.2C2406.5 1066.04 2407.83 1063.9 2407.66 1061.94C2407.48 1059.81 2405.38 1058.5 2403.4 1058.65Z" fill="white"/>
<path d="M2408.52 996.947C2410.08 995.828 2411.77 994.986 2413.53 994.285C2413.07 993 2412.44 991.778 2411.58 990.676C2404.02 981.028 2400.6 990.614 2394.74 990.822C2391.82 990.925 2388.9 991.854 2387.23 993.926C2387.97 994.193 2388.69 994.499 2389.38 994.865C2390.5 995.455 2390.7 996.883 2389.92 997.827C2389.19 998.713 2388.15 999.454 2387.02 999.719C2386.67 999.803 2386.31 999.795 2385.95 999.815C2386.15 1001.07 2386.57 1002.47 2387.28 1004.04C2388.01 1005.65 2388.96 1007.16 2390.04 1008.57C2390.66 1008.24 2391.31 1007.95 2391.98 1007.7C2393.03 1007.31 2394.54 1008.24 2394.43 1009.44C2394.34 1010.49 2394.07 1011.5 2393.63 1012.42C2395.16 1013.78 2396.82 1014.88 2398.5 1015.84C2398.68 1015.73 2398.85 1015.62 2399.04 1015.51C2399.44 1015.29 2399.85 1015.1 2400.26 1014.92C2400.5 1014.81 2400.75 1014.72 2401 1014.65C2401.65 1014.48 2402.32 1014.6 2402.83 1015.06C2403.33 1015.51 2403.56 1016.22 2403.41 1016.88C2403.33 1017.23 2403.2 1017.56 2403.07 1017.89C2405.56 1018.69 2407.95 1018.98 2409.93 1018.54C2409.93 1018.54 2411.02 1016.36 2412.15 1013.14C2411.55 1013 2410.96 1012.85 2410.37 1012.68C2409.68 1012.48 2409.15 1012.13 2408.74 1011.54C2408.34 1010.97 2408.27 1010.24 2408.39 1009.58C2408.51 1008.94 2409 1008.29 2409.54 1007.94C2410.06 1007.61 2410.88 1007.42 2411.5 1007.6C2412.2 1007.8 2412.91 1007.95 2413.62 1008.11C2414.25 1005.38 2414.66 1002.39 2414.52 999.486C2414.46 999.516 2414.39 999.546 2414.34 999.563C2413.29 1000.06 2412.27 1000.65 2411.32 1001.34C2410.14 1002.19 2408.5 1001.64 2407.73 1000.54C2406.88 999.348 2407.41 997.74 2408.52 996.947Z" fill="#80D9A9"/>
<path opacity="0.3" d="M2408.52 996.947C2410.08 995.828 2411.77 994.986 2413.53 994.285C2413.07 993 2412.44 991.778 2411.58 990.676C2404.02 981.028 2400.6 990.614 2394.74 990.822C2391.82 990.925 2388.9 991.854 2387.23 993.926C2387.97 994.193 2388.69 994.499 2389.38 994.865C2390.5 995.455 2390.7 996.883 2389.92 997.827C2389.19 998.713 2388.15 999.454 2387.02 999.719C2386.67 999.803 2386.31 999.795 2385.95 999.815C2386.15 1001.07 2386.57 1002.47 2387.28 1004.04C2388.01 1005.65 2388.96 1007.16 2390.04 1008.57C2390.66 1008.24 2391.31 1007.95 2391.98 1007.7C2393.03 1007.31 2394.54 1008.24 2394.43 1009.44C2394.34 1010.49 2394.07 1011.5 2393.63 1012.42C2395.16 1013.78 2396.82 1014.88 2398.5 1015.84C2398.68 1015.73 2398.85 1015.62 2399.04 1015.51C2399.44 1015.29 2399.85 1015.1 2400.26 1014.92C2400.5 1014.81 2400.75 1014.72 2401 1014.65C2401.65 1014.48 2402.32 1014.6 2402.83 1015.06C2403.33 1015.51 2403.56 1016.22 2403.41 1016.88C2403.33 1017.23 2403.2 1017.56 2403.07 1017.89C2405.56 1018.69 2407.95 1018.98 2409.93 1018.54C2409.93 1018.54 2411.02 1016.36 2412.15 1013.14C2411.55 1013 2410.96 1012.85 2410.37 1012.68C2409.68 1012.48 2409.15 1012.13 2408.74 1011.54C2408.34 1010.97 2408.27 1010.24 2408.39 1009.58C2408.51 1008.94 2409 1008.29 2409.54 1007.94C2410.06 1007.61 2410.88 1007.42 2411.5 1007.6C2412.2 1007.8 2412.91 1007.95 2413.62 1008.11C2414.25 1005.38 2414.66 1002.39 2414.52 999.486C2414.46 999.516 2414.39 999.546 2414.34 999.563C2413.29 1000.06 2412.27 1000.65 2411.32 1001.34C2410.14 1002.19 2408.5 1001.64 2407.73 1000.54C2406.88 999.348 2407.41 997.74 2408.52 996.947Z" fill="white"/>
<path d="M2336.22 1014.86C2335.7 1018.49 2345.55 1020.88 2353.58 1022.22C2352.92 1028.82 2348.54 1035.48 2342.48 1041.7C2334.86 1037.41 2323.98 1031.73 2321.97 1033.12C2319.78 1034.63 2330.92 1041.83 2337.89 1046.07C2332.99 1050.42 2327.47 1054.47 2322.11 1058.03C2318.69 1054.83 2314.69 1052.03 2312.31 1053.55C2309.84 1055.12 2310.51 1060.06 2311.73 1064.46C2303.43 1069.3 2297.23 1072.24 2297.23 1072.24C2297.23 1072.24 2293.75 1061.69 2291.69 1048.7C2292.11 1047.87 2292.52 1047.04 2292.9 1046.16C2294.24 1043.07 2292.94 1041.75 2290.73 1041.32C2290.16 1035.63 2290 1029.79 2290.6 1024.36C2299.98 1022.39 2311.39 1018.75 2307.12 1013.12C2304.54 1009.73 2299.82 1009.34 2294.91 1010.19C2295.6 1009.06 2296.36 1008 2297.23 1007.04C2314.31 988.221 2326.22 1007.04 2326.22 1007.04C2336.14 998.765 2350.08 1001.01 2353.1 1013.93C2347.52 1012.5 2336.86 1010.38 2336.22 1014.86Z" fill="#80D9A9"/>
<path opacity="0.5" d="M2336.22 1014.86C2335.7 1018.49 2345.55 1020.88 2353.58 1022.22C2352.92 1028.82 2348.54 1035.48 2342.48 1041.7C2334.86 1037.41 2323.98 1031.73 2321.97 1033.12C2319.78 1034.63 2330.92 1041.83 2337.89 1046.07C2332.99 1050.42 2327.47 1054.47 2322.11 1058.03C2318.69 1054.83 2314.69 1052.03 2312.31 1053.55C2309.84 1055.12 2310.51 1060.06 2311.73 1064.46C2303.43 1069.3 2297.23 1072.24 2297.23 1072.24C2297.23 1072.24 2293.75 1061.69 2291.69 1048.7C2292.11 1047.87 2292.52 1047.04 2292.9 1046.16C2294.24 1043.07 2292.94 1041.75 2290.73 1041.32C2290.16 1035.63 2290 1029.79 2290.6 1024.36C2299.98 1022.39 2311.39 1018.75 2307.12 1013.12C2304.54 1009.73 2299.82 1009.34 2294.91 1010.19C2295.6 1009.06 2296.36 1008 2297.23 1007.04C2314.31 988.221 2326.22 1007.04 2326.22 1007.04C2336.14 998.765 2350.08 1001.01 2353.1 1013.93C2347.52 1012.5 2336.86 1010.38 2336.22 1014.86Z" fill="white"/>
<path d="M2036.37 1119.09L2042.96 1056.02L2101.11 1054.42C2101.11 1054.42 2109.83 1112.32 2108.16 1112.08C2106.48 1111.83 2036.37 1119.09 2036.37 1119.09Z" fill="#80D9A9"/>
<path opacity="0.2" d="M2036.37 1119.09L2042.96 1056.02L2101.11 1054.42C2101.11 1054.42 2109.83 1112.32 2108.16 1112.08C2106.48 1111.83 2036.37 1119.09 2036.37 1119.09Z" fill="black"/>
<path d="M2084.93 1107.93L2108.37 1074.31C2108.37 1074.31 2134.33 1084.96 2134.33 1086.06C2134.33 1087.16 2135.45 1111.34 2135.45 1111.34L2084.93 1107.93Z" fill="#263238"/>
<path opacity="0.2" d="M2084.93 1107.93L2108.37 1074.31C2108.37 1074.31 2134.33 1084.96 2134.33 1086.06C2134.33 1087.16 2135.45 1111.34 2135.45 1111.34L2084.93 1107.93Z" fill="white"/>
<path d="M2029.47 1098.07C2031.69 1084.42 2022.42 1071.55 2008.77 1069.34C1995.12 1067.12 1982.26 1076.39 1980.04 1090.04C1977.83 1103.69 1987.09 1116.55 2000.74 1118.77C2014.39 1120.99 2027.26 1111.72 2029.47 1098.07Z" fill="#80D9A9"/>
<path d="M2013.03 1100.11L1997.39 1044.29L2005.21 1039.65L2020.85 1041.6L2026.83 1052.11L2039.17 1057.24L2047.98 1096.21L2041.12 1104.02C2041.12 1104.02 2042.59 1112.23 2041.61 1112.23C2040.63 1112.23 2016.94 1114.14 2016.94 1114.14L2013.03 1100.11Z" fill="#80D9A9"/>
<path opacity="0.2" d="M2041.13 1104.03C2041.13 1104.03 2042.58 1112.23 2041.6 1112.23C2041.03 1112.23 2032.41 1112.9 2025.52 1113.47C2020.82 1113.84 2016.95 1114.13 2016.95 1114.13L2013.02 1100.1L1997.38 1044.28L2005.21 1039.64L2006.35 1039.79L2020.85 1041.61L2026.83 1052.11L2039.18 1057.23L2047.99 1096.2L2041.13 1104.03Z" fill="white"/>
<path d="M2009.12 1059.92C2009.12 1064.24 2005.62 1067.74 2001.3 1067.74C1996.98 1067.74 1993.48 1064.24 1993.48 1059.92C1993.48 1055.61 1996.98 1052.11 2001.3 1052.11C2005.62 1052.11 2009.12 1055.61 2009.12 1059.92Z" fill="#263238"/>
<path d="M2001.3 1063.83C2003.46 1063.83 2005.21 1062.08 2005.21 1059.92C2005.21 1057.77 2003.46 1056.02 2001.3 1056.02C1999.14 1056.02 1997.39 1057.77 1997.39 1059.92C1997.39 1062.08 1999.14 1063.83 2001.3 1063.83Z" fill="white"/>
<path d="M2020.84 1100.11C2020.84 1104.43 2017.34 1107.93 2013.03 1107.93C2008.71 1107.93 2005.21 1104.43 2005.21 1100.11C2005.21 1095.8 2008.71 1092.3 2013.03 1092.3C2017.34 1092.3 2020.84 1095.8 2020.84 1100.11Z" fill="#263238"/>
<path d="M2016.93 1100.11C2016.93 1102.27 2015.19 1104.02 2013.03 1104.02C2010.87 1104.02 2009.12 1102.27 2009.12 1100.11C2009.12 1097.96 2010.87 1096.21 2013.03 1096.21C2015.19 1096.21 2016.93 1097.96 2016.93 1100.11Z" fill="white"/>
<path opacity="0.2" d="M2041.13 1104.03C2041.13 1104.03 2042.58 1112.23 2041.59 1112.23C2041.03 1112.23 2032.41 1112.9 2025.51 1113.47C2025 1109.64 2025.12 1104.03 2025.12 1104.03L2032.13 1094.52L2025.37 1058.09L2013.02 1054.19L2006.35 1039.79L2020.85 1041.61L2026.82 1052.11L2039.17 1057.23L2047.99 1096.2L2041.13 1104.03Z" fill="white"/>
<path d="M2068.1 1081.01C2068.1 1081.01 2051.4 1083.09 2052.98 1070.07C2054.56 1057.04 2062.02 1050.07 2062.02 1050.07L2054.99 1049.2C2054.99 1049.2 2026.51 1082.89 2065.35 1088.82L2068.1 1081.01Z" fill="#263238"/>
<path d="M2068.46 1041.17C2068.46 1041.17 2071.47 1045.75 2067.55 1050.76C2063.63 1055.76 2050.32 1051.24 2050.72 1046.11C2051.11 1040.97 2058.85 1036.48 2058.85 1036.48L2060.46 1037.64C2060.46 1037.64 2051.35 1043.57 2058.84 1046.12C2066.34 1048.68 2066.79 1042.22 2066.79 1042.22L2068.46 1041.17Z" fill="#80D9A9"/>
<path d="M2094.65 1090.58C2094.65 1090.58 2106.97 1102.06 2113.32 1090.58C2119.67 1079.1 2117.72 1069.08 2117.72 1069.08L2123.92 1072.49C2123.92 1072.49 2127.24 1116.48 2092.31 1098.52L2094.65 1090.58Z" fill="#263238"/>
<path d="M2055.67 1104.02L2068.37 1075.92C2068.37 1075.92 2096.82 1081.05 2095.91 1082.03C2095 1083.01 2093.18 1116.96 2093.18 1116.96L2055.67 1104.02Z" fill="#80D9A9"/>
<path d="M2089.45 1042.94L2084 1059.92H2086.27L2089.45 1042.94Z" fill="#263238"/>
<path d="M2090.81 1043.6C2090.81 1044.36 2090.2 1044.96 2089.45 1044.96C2088.7 1044.96 2088.09 1044.35 2088.09 1043.6C2088.09 1042.85 2088.7 1042.24 2089.45 1042.24C2090.2 1042.24 2090.81 1042.85 2090.81 1043.6Z" fill="#263238"/>
<path d="M2066.47 1052.11L2061.04 1075.43C2061.04 1075.43 2102.81 1087.4 2102.81 1085.94C2102.81 1084.47 2106.96 1063.83 2106.96 1063.83L2066.47 1052.11Z" fill="#80D9A9"/>
<path opacity="0.4" d="M2066.47 1052.11L2061.04 1075.43C2061.04 1075.43 2102.81 1087.4 2102.81 1085.94C2102.81 1084.47 2106.96 1063.83 2106.96 1063.83L2066.47 1052.11Z" fill="white"/>
<path d="M2078.21 1062.65C2078.21 1064.15 2076.99 1065.37 2075.49 1065.37C2073.99 1065.37 2072.77 1064.15 2072.77 1062.65C2072.77 1061.14 2073.99 1059.92 2075.49 1059.92C2076.99 1059.92 2078.21 1061.14 2078.21 1062.65Z" fill="white"/>
<path d="M2098.63 1067.74C2098.63 1069.25 2097.41 1070.47 2095.91 1070.47C2094.4 1070.47 2093.18 1069.25 2093.18 1067.74C2093.18 1066.24 2094.4 1065.02 2095.91 1065.02C2097.41 1065.02 2098.63 1066.24 2098.63 1067.74Z" fill="white"/>
<path d="M2077.6 1072.49L2088.4 1076.9V1079.34L2075.49 1074.7L2077.6 1072.49Z" fill="white"/>
<path opacity="0.4" d="M2094.65 1093.51C2093.91 1103.69 2093.2 1116.95 2093.2 1116.95L2055.68 1104.03L2065.24 1082.89L2094.65 1093.51Z" fill="white"/>
<path d="M2117.72 1058.09C2117.72 1058.09 2112.59 1060.04 2112.83 1066.39C2113.08 1072.74 2126.51 1076.89 2129.2 1072.49C2131.88 1068.1 2128.25 1059.92 2128.25 1059.92H2126.27C2126.27 1059.92 2130.17 1070.07 2122.6 1067.74C2115.03 1065.42 2118.45 1059.92 2118.45 1059.92L2117.72 1058.09Z" fill="#80D9A9"/>
<path d="M1971.07 1182.73H2143.42V1098.52H1971.07V1182.73Z" fill="#263238"/>
<path opacity="0.6" d="M1971.07 1182.73H2143.42V1098.52H1971.07V1182.73Z" fill="white"/>
<path opacity="0.3" d="M1971.07 1182.73H2093.18V1098.52H1971.07V1182.73Z" fill="white"/>
<path d="M2093.18 1098.52L2105.8 1118.46H2154.65L2143.42 1098.52H2093.18Z" fill="#263238"/>
<path d="M2093.18 1098.52L2082.19 1118.46H1960.25L1971.07 1098.52H2093.18Z" fill="#263238"/>
<path opacity="0.4" d="M2093.18 1098.52L2105.8 1118.46H2154.65L2143.42 1098.52H2093.18Z" fill="white"/>
<path opacity="0.6" d="M2093.18 1098.52L2082.19 1118.46H1960.25L1971.07 1098.52H2093.18Z" fill="white"/>
<path d="M1965.35 1102.3H1774.51V1182.73H1965.35V1102.3Z" fill="#80D9A9"/>
<path opacity="0.2" d="M1774.51 1182.73H1913.86V1102.3H1774.51V1182.73Z" fill="white"/>
<path d="M1844.61 1102.3H1825.56V1114.35H1844.61V1102.3Z" fill="#263238"/>
<path d="M1844.61 1173.63H1825.56V1182.73H1844.61V1173.63Z" fill="#263238"/>
<path d="M1944.99 1022.01H1803.55V1102.44H1944.99V1022.01Z" fill="#80D9A9"/>
<path opacity="0.2" d="M1944.99 1022.01H1803.55V1102.44H1944.99V1022.01Z" fill="white"/>
<path opacity="0.2" d="M1803.56 1102.44H1893.51V1022.01H1803.56V1102.44Z" fill="white"/>
<path opacity="0.2" d="M1924.2 1022.01H1914.56V1032.27H1924.2V1022.01Z" fill="black"/>
<path opacity="0.2" d="M1924.2 1095.46H1914.56V1102.44H1924.2V1095.46Z" fill="black"/>
<path d="M1460.34 1182.73H1612.36V1012.96H1460.34V1182.73Z" fill="#80D9A9"/>
<path opacity="0.2" d="M1460.34 1182.73H1506.98V1012.96H1460.34V1182.73Z" fill="black"/>
<path opacity="0.2" d="M1517.38 1053.36H1604.8V1020.48H1517.38V1053.36Z" fill="white"/>
<path opacity="0.2" d="M1517.38 1094.28H1604.8V1061.41H1517.38V1094.28Z" fill="white"/>
<path opacity="0.2" d="M1517.38 1173.38H1604.8V1102.33H1517.38V1173.38Z" fill="white"/>
<path opacity="0.2" d="M1559.88 1026.83C1559.88 1028.73 1561.42 1030.27 1563.32 1030.27C1565.23 1030.27 1566.77 1028.73 1566.77 1026.83C1566.77 1024.92 1565.23 1023.38 1563.32 1023.38C1561.42 1023.38 1559.88 1024.92 1559.88 1026.83Z" fill="black"/>
<path opacity="0.2" d="M1563.32 1069.75C1565.23 1069.75 1566.77 1068.2 1566.77 1066.3C1566.77 1064.4 1565.23 1062.85 1563.32 1062.85C1561.42 1062.85 1559.88 1064.4 1559.88 1066.3C1559.88 1068.2 1561.42 1069.75 1563.32 1069.75Z" fill="black"/>
<path opacity="0.2" d="M1597.13 1137.85C1597.13 1139.76 1598.67 1141.3 1600.58 1141.3C1602.48 1141.3 1604.03 1139.76 1604.03 1137.85C1604.03 1135.95 1602.48 1134.41 1600.58 1134.41C1598.67 1134.41 1597.13 1135.95 1597.13 1137.85Z" fill="black"/>
<path d="M1447.17 1079.52H1439.43V1182.73H1447.17V1079.52Z" fill="#263238"/>
<path d="M1401.98 1114.99H1484.62L1477.94 1056.51H1408.67L1401.98 1114.99Z" fill="#80D9A9"/>
<g opacity="0.6">
<path d="M1401.98 1114.99H1484.62L1477.94 1056.51H1408.67L1401.98 1114.99Z" fill="white"/>
</g>
<path opacity="0.2" d="M1439.43 1138.53V1182.73H1447.17V1133.69L1439.43 1138.53Z" fill="white"/>
<path d="M1456.85 1178.19H1429.76L1424.93 1182.73H1461.68L1456.85 1178.19Z" fill="#80D9A9"/>
<path opacity="0.2" d="M1456.85 1178.19H1429.76L1424.93 1182.73H1461.68L1456.85 1178.19Z" fill="white"/>
<path d="M2193.39 756.011C2193.39 756.011 2191.26 759.163 2188.02 763.851C2184.53 768.905 2179.67 775.789 2174.79 782.351C2168.07 791.451 2161.23 799.982 2157.7 802.393C2149.28 808.205 2108.04 818.796 2106.27 818.591C2104.49 818.389 2101.68 809.348 2101.68 809.348C2101.68 809.348 2139.37 796.719 2144.77 792.982C2150.19 789.245 2170.03 742.52 2183.32 736.792L2193.39 756.011Z" fill="#E4897B"/>
<path opacity="0.2" d="M2188.02 763.851C2184.53 768.905 2179.67 775.788 2174.79 782.351C2161.57 764.804 2180.34 745.452 2180.34 745.452C2180.34 745.452 2186.9 756.841 2188.02 763.851Z" fill="black"/>
<path d="M2209.19 942.526C2211.9 949.694 2214.38 956.948 2216.63 964.072C2228.02 1000.13 2233.86 1042.99 2233.86 1042.99C2264.35 1104.6 2285.74 1197.19 2285.74 1197.19L2274.46 1200.96L2200.33 1036.17L2178.34 979.475L2209.19 942.526Z" fill="#E4897B"/>
<path d="M2286.22 1188.59C2285.54 1187.26 2269.53 1196.34 2269.53 1196.34C2269.53 1196.34 2264.39 1211.61 2255.65 1218.72C2246.9 1225.84 2255.3 1229.08 2266.33 1223.73C2277.36 1218.37 2285.78 1214.28 2293.62 1210.47C2301.46 1206.67 2293.31 1202.37 2286.22 1188.59Z" fill="#263238"/>
<path d="M2262.9 1204.79C2262.29 1205.08 2261.73 1205.21 2261.25 1205.1C2260.8 1204.99 2260.22 1204.63 2259.99 1203.53C2259.88 1203 2260 1202.48 2260.33 1201.98C2260.96 1201.06 2262.38 1200.32 2263.84 1199.78C2262.14 1199.72 2260.55 1199.42 2260.07 1198.57C2259.77 1198.02 2259.91 1197.38 2260.49 1196.66C2261.03 1195.98 2261.74 1195.61 2262.59 1195.56C2265.27 1195.4 2268.52 1198.56 2268.68 1198.72C2268.73 1198.76 2268.77 1198.82 2268.79 1198.88V1198.89C2268.81 1198.94 2268.83 1198.99 2268.83 1199.04V1199.04C2268.83 1199.09 2268.83 1199.15 2268.81 1199.2V1199.2C2268.79 1199.26 2268.77 1199.32 2268.72 1199.37C2268.06 1200.2 2265.2 1203.66 2262.9 1204.79ZM2262.9 1201.22C2262.11 1201.61 2261.46 1202.04 2261.13 1202.53C2260.95 1202.8 2260.88 1203.06 2260.94 1203.34C2261.09 1204.06 2261.38 1204.13 2261.47 1204.16C2262.56 1204.42 2265.15 1202.04 2267.08 1199.83C2265.81 1200.12 2264.17 1200.6 2262.9 1201.22ZM2261.91 1196.71C2261.66 1196.83 2261.44 1197.02 2261.24 1197.26C2261.07 1197.48 2260.8 1197.88 2260.92 1198.1C2261.32 1198.82 2264.31 1198.96 2267.21 1198.7C2266.14 1197.82 2264.2 1196.44 2262.65 1196.53C2262.38 1196.54 2262.14 1196.6 2261.91 1196.71Z" fill="#80D9A9"/>
<path d="M2159.85 942.116C2164.02 968.026 2170.48 987.801 2177.51 1004.21C2186.7 1025.57 2196.86 1041.28 2204.24 1057.49C2217.29 1086.17 2251.04 1154.34 2251.04 1154.34L2273.62 1137.29C2273.62 1137.29 2237.58 1050.45 2235.14 1033.41C2233.56 1022.37 2232.04 963.022 2231.16 922.566C2230.69 900.514 2230.4 884.081 2230.4 884.081L2165.88 832.569C2165.88 832.569 2150.29 882.48 2159.85 942.116Z" fill="#263238"/>
<path opacity="0.2" d="M2177.51 1004.21C2186.7 1025.57 2196.86 1041.28 2204.24 1057.49C2217.29 1086.17 2251.04 1154.34 2251.04 1154.34L2273.62 1137.29C2273.62 1137.29 2237.58 1050.46 2235.14 1033.41C2233.56 1022.37 2232.04 963.022 2231.16 922.566L2212.06 882.46L2187.3 892.41L2195.38 923.509L2177.51 1004.21Z" fill="black"/>
<path d="M2201.12 1069.93C2184.11 1134.69 2152.15 1211.53 2152.15 1211.53L2141.07 1207.22L2173.54 1069.93H2201.12Z" fill="#E4897B"/>
<path d="M2158.01 1205.21C2158.33 1203.75 2140.22 1200.52 2140.22 1200.52C2140.22 1200.52 2126.52 1209 2115.24 1208.9C2103.97 1208.8 2108.36 1216.65 2120.28 1219.57C2132.19 1222.48 2141.28 1224.71 2149.75 1226.78C2158.21 1228.85 2154.68 1220.35 2158.01 1205.21Z" fill="#263238"/>
<path d="M2129.72 1202.79C2129.07 1202.64 2128.55 1202.38 2128.25 1201.98C2127.98 1201.61 2127.76 1200.97 2128.29 1199.97C2128.54 1199.49 2128.96 1199.17 2129.53 1199C2130.61 1198.69 2132.17 1199.03 2133.64 1199.54C2132.38 1198.41 2131.34 1197.16 2131.51 1196.21C2131.63 1195.59 2132.14 1195.18 2133.05 1195C2133.9 1194.83 2134.68 1194.99 2135.37 1195.5C2137.54 1197.09 2138.02 1201.58 2138.05 1201.82C2138.05 1201.88 2138.05 1201.95 2138.03 1202.01V1202.01L2138.02 1202.02C2138.01 1202.07 2137.98 1202.11 2137.96 1202.15L2137.95 1202.16C2137.92 1202.2 2137.88 1202.24 2137.84 1202.27L2137.84 1202.27C2137.78 1202.3 2137.73 1202.33 2137.66 1202.34C2136.62 1202.56 2132.21 1203.4 2129.72 1202.79ZM2132 1200.06C2131.15 1199.85 2130.36 1199.77 2129.8 1199.93C2129.49 1200.02 2129.27 1200.18 2129.14 1200.43C2128.79 1201.09 2128.97 1201.32 2129.03 1201.4C2129.7 1202.3 2133.21 1202.11 2136.11 1201.64C2134.94 1201.07 2133.37 1200.39 2132 1200.06ZM2134.12 1195.95C2133.85 1195.89 2133.56 1195.89 2133.25 1195.95C2132.98 1196 2132.51 1196.14 2132.46 1196.39C2132.31 1197.2 2134.52 1199.21 2136.92 1200.86C2136.66 1199.5 2136.06 1197.21 2134.8 1196.28C2134.58 1196.12 2134.36 1196.01 2134.12 1195.95Z" fill="#80D9A9"/>
<path d="M2234.12 825.65C2234.12 825.65 2259.13 878.4 2250.29 928.175C2241.45 977.951 2214.75 1041.84 2207.55 1057.34C2200.35 1072.84 2173.46 1164.61 2173.46 1164.61L2150.2 1157.04C2150.2 1157.04 2170.98 1065.95 2177.52 1034.22C2180.6 1019.23 2207.01 912.483 2207.01 912.483C2207.01 912.483 2161.76 878.862 2164.96 826.248L2234.12 825.65Z" fill="#263238"/>
<path d="M2208.84 837.526L2172.85 834.026L2173.65 823.176L2209.57 827.612L2208.84 837.526Z" fill="black"/>
<path d="M2170.48 822.785L2169.68 833.718L2166.04 833.364L2166.29 822.267L2170.48 822.785Z" fill="black"/>
<path d="M2212.73 828.004L2231.77 830.356L2231.57 839.739L2212.01 837.835L2212.73 828.004Z" fill="black"/>
<path d="M2180.71 835.534L2194.7 837.101L2195.89 826.494L2181.9 824.928L2180.71 835.534Z" fill="white"/>
<path d="M2111.9 808.551C2111.9 808.551 2107.54 803.872 2105.46 802.793C2103.37 801.714 2083.78 806.426 2083.78 808.765C2083.77 811.105 2089.5 824.307 2094.03 823.766C2098.56 823.225 2109.79 819.824 2111.38 817.732C2112.98 815.642 2111.9 808.551 2111.9 808.551Z" fill="#E4897B"/>
<path d="M2239.61 822.351C2237.65 828.891 2237.53 832.431 2237.53 832.431L2167.69 821.528C2168.29 802.778 2171.47 783.626 2174.76 768.263C2176.76 758.943 2178.82 751.022 2180.34 745.452C2181.86 739.956 2182.89 736.74 2182.89 736.74C2222.75 731.064 2264.73 751.182 2264.73 751.182L2262.52 771.664L2261.51 781.045C2248.18 799.429 2242.23 813.597 2239.61 822.351Z" fill="#80D9A9"/>
<path opacity="0.2" d="M2239.61 822.351C2237.65 828.891 2237.53 832.431 2237.53 832.431L2167.69 821.528C2168.29 802.778 2171.47 783.626 2174.76 768.263C2176.76 758.943 2178.82 751.022 2180.34 745.452C2181.86 739.956 2182.89 736.74 2182.89 736.74C2222.75 731.064 2264.73 751.182 2264.73 751.182L2262.52 771.664L2261.51 781.045C2248.18 799.429 2242.23 813.597 2239.61 822.351Z" fill="black"/>
<path opacity="0.4" d="M2216.73 785.355C2212.56 794.746 2202.76 799.508 2194.84 795.993C2186.93 792.476 2183.89 782.013 2188.06 772.622C2192.23 763.231 2202.03 758.469 2209.95 761.984C2217.86 765.501 2220.9 775.964 2216.73 785.355Z" fill="white"/>
<path opacity="0.2" d="M2261.51 781.045C2248.18 799.429 2242.23 813.597 2239.61 822.348C2233.71 814.027 2234.59 802.67 2234.59 802.67L2245.75 777.083L2262.52 771.664L2261.51 781.045Z" fill="black"/>
<path d="M2264.73 751.182C2248.84 746.546 2237.3 790.169 2231.95 799.147C2226.6 808.128 2166.85 817.89 2166.85 817.89L2169.12 829.605C2169.12 829.605 2227.37 822.042 2235.42 817.233C2243.47 812.424 2263.98 779.476 2267.7 770.374C2273.18 756.987 2264.73 751.182 2264.73 751.182Z" fill="#E4897B"/>
<path d="M2173.84 821.012C2173.84 821.012 2170.63 815.489 2168.84 813.975C2167.04 812.461 2146.89 812.722 2146.37 815.005C2145.84 817.284 2148.51 831.428 2153.05 831.902C2157.58 832.376 2169.29 831.544 2171.31 829.854C2173.32 828.165 2173.84 821.012 2173.84 821.012Z" fill="#E4897B"/>
<path d="M2214.18 749.439C2230.48 751.588 2237.01 746.099 2237.01 746.099C2232.17 738.326 2235.71 729.671 2238.83 724.514C2240.54 721.656 2242.14 719.873 2242.14 719.873L2222.22 718.401C2221.89 721.666 2221.41 724.361 2220.84 726.586C2220.24 729.036 2219.51 730.901 2218.75 732.314C2215.96 737.644 2212.71 736.869 2212.71 736.869C2207.73 742.216 2214.18 749.439 2214.18 749.439Z" fill="#E4897B"/>
<path opacity="0.2" d="M2220.84 726.586C2220.24 729.036 2219.51 730.901 2218.75 732.314C2226.55 733.317 2233.86 728.799 2238.83 724.514C2240.54 721.656 2242.14 719.873 2242.14 719.873L2222.22 718.401C2221.89 721.664 2221.41 724.361 2220.84 726.586Z" fill="black"/>
<path d="M2269.9 683.467C2269.9 683.467 2283.85 675.813 2294.6 691.678C2305.35 707.542 2288 725.882 2283.37 736.777C2278.74 747.675 2288.3 753.534 2288.3 753.534C2288.3 753.534 2270.97 763.634 2264.91 742.57C2258.85 721.508 2268.37 696.255 2268.37 696.255L2269.9 683.467Z" fill="#263238"/>
<path d="M2211.21 689.968C2211.21 689.968 2226.09 721.77 2248.01 722.58C2269.93 723.39 2298.13 677.203 2252.25 663.749C2252.25 663.749 2203.96 653.763 2211.21 689.968Z" fill="#263238"/>
<path d="M2247.91 673.412C2232.58 665.869 2223.61 671.649 2214.71 686.893C2203.6 705.944 2201.07 722.123 2222.31 727.337C2251.16 734.419 2273.37 685.937 2247.91 673.412Z" fill="#E4897B"/>
<path d="M2225.04 690.912C2225.04 690.912 2220.95 693.871 2217.46 695.074C2217.46 695.074 2217.74 697.803 2220.64 698.796L2225.04 690.912Z" fill="#DE5753"/>
<path d="M2238.03 693.046L2235.88 690.573C2235.88 690.573 2236.04 693.552 2238.03 693.046Z" fill="#263238"/>
<path d="M2236.93 692.915C2236.93 692.915 2240.47 690.84 2242.33 694.76C2242.33 694.76 2240.33 693.211 2237.94 693.518C2237.94 693.518 2239.58 693.957 2239.52 695.842C2239.52 695.842 2239.25 694.54 2236.8 693.57L2236.93 692.915Z" fill="#263238"/>
<path d="M2245.91 690.228C2245.51 690.228 2245.15 689.954 2245.06 689.548C2244.26 686.056 2240.16 684.606 2240.12 684.594C2239.66 684.436 2239.42 683.939 2239.58 683.482C2239.73 683.025 2240.23 682.781 2240.69 682.939C2240.89 683.008 2245.74 684.705 2246.76 689.158C2246.87 689.627 2246.58 690.097 2246.11 690.205C2246.04 690.22 2245.98 690.228 2245.91 690.228Z" fill="#263238"/>
<path d="M2229.58 678.51C2229.35 678.51 2229.12 678.419 2228.95 678.241C2228.86 678.147 2226.93 676.243 2222.97 676.756C2222.48 676.818 2222.05 676.482 2221.99 676.003C2221.93 675.524 2222.26 675.084 2222.74 675.022C2227.66 674.385 2230.11 676.924 2230.22 677.033C2230.55 677.384 2230.53 677.937 2230.19 678.268C2230.02 678.431 2229.8 678.51 2229.58 678.51Z" fill="#263238"/>
<path d="M2251.95 707.49C2251.95 707.49 2250.98 691.369 2256.85 682.18C2256.85 682.18 2232.58 654.823 2215.91 684.92C2215.91 684.92 2226.41 656.08 2253.06 668.437C2279.67 680.772 2260.63 719.287 2241.37 724.079C2241.37 724.079 2252.51 717.548 2251.95 707.49Z" fill="#263238"/>
<path d="M2247.85 709.494C2249.17 707.076 2253.77 704.151 2258.11 706.91C2262.61 709.765 2260.08 720.631 2247.11 717.163C2245.25 716.667 2245.11 714.54 2247.85 709.494Z" fill="#E4897B"/>
<path d="M2267.91 674.4C2267.91 674.4 2262.82 663.648 2255.34 660.072C2247.87 656.493 2243.17 659.489 2243.17 659.489C2243.17 659.489 2241.15 654.781 2234.94 653.756C2228.73 652.731 2217.36 658.165 2210.03 670.117C2202.7 682.072 2211.2 689.971 2211.2 689.971C2211.2 689.971 2217.38 666.187 2237.16 670.925C2237.16 670.925 2245.3 671.187 2246.07 678.313C2246.83 685.438 2237.08 698.564 2253.4 702.775C2269.74 706.987 2272.64 685.352 2267.91 674.4Z" fill="#263238"/>
<path d="M2225.45 688.464C2225.45 688.464 2225.43 685.327 2223.04 684.735L2221.58 682.509C2221.58 682.509 2220.55 684.413 2222.9 685.809L2224.63 687.372C2224.63 687.372 2222.37 686.157 2221.57 686.755C2221.57 686.755 2224.76 687.585 2225.45 688.464Z" fill="#263238"/>
<path d="M2230.21 708.684C2230.2 708.703 2230.18 708.696 2230.18 708.718C2228.73 709.496 2228.11 706.083 2224.53 705.846C2222.16 705.675 2220.33 706.695 2219.39 707.402C2218.87 707.76 2218.6 708.041 2218.6 708.041L2219.37 704.645C2219.37 704.645 2219.46 704.534 2219.67 704.371C2220.73 703.398 2224.77 700.365 2229.88 703.931C2229.88 703.931 2230.31 704.961 2230.57 706.07C2230.82 707.13 2230.89 708.288 2230.21 708.684Z" fill="#263238"/>
<path d="M2230.21 708.684C2230.2 708.703 2230.18 708.696 2230.17 708.718C2228.72 709.496 2228.11 706.083 2224.53 705.846C2222.16 705.675 2220.33 706.695 2219.39 707.402L2220.03 705.571C2223.49 704.201 2227.15 704.783 2228.38 705.03C2223.38 703.652 2220.07 705.03 2220.07 705.03L2219.66 704.373C2220.73 703.4 2224.77 700.367 2229.88 703.934C2229.88 703.934 2230.31 704.964 2230.57 706.073L2230.19 706.629L2230.21 708.684Z" fill="white"/>
<path d="M1720.38 850.444L1717.29 921.896C1717.29 921.896 1725.27 926.293 1734.55 921.896L1749.69 848.122L1720.38 850.444Z" fill="#80D9A9"/>
<path opacity="0.4" d="M1720.38 850.444L1717.29 921.896C1717.29 921.896 1725.27 926.293 1734.55 921.896L1749.69 848.122L1720.38 850.444Z" fill="white"/>
<path d="M2052.96 800.009L2075.56 867.865C2075.56 867.865 2069.1 874.285 2058.96 872.608L2024.13 805.831L2052.96 800.009Z" fill="#80D9A9"/>
<path opacity="0.4" d="M2052.96 800.009L2075.56 867.865C2075.56 867.865 2069.1 874.285 2058.96 872.608L2024.13 805.831L2052.96 800.009Z" fill="white"/>
<path d="M1802.95 859.675L1799.85 931.127C1799.85 931.127 1807.83 935.523 1817.12 931.127L1832.26 857.353L1802.95 859.675Z" fill="#80D9A9"/>
<path opacity="0.6" d="M1802.95 859.675L1799.85 931.127C1799.85 931.127 1807.83 935.523 1817.12 931.127L1832.26 857.353L1802.95 859.675Z" fill="white"/>
<path d="M2135.53 809.24L2158.13 877.095C2158.13 877.095 2151.67 883.515 2141.53 881.838L2106.71 815.061L2135.53 809.24Z" fill="#80D9A9"/>
<path opacity="0.6" d="M2135.53 809.24L2158.13 877.095C2158.13 877.095 2151.67 883.515 2141.53 881.838L2106.71 815.061L2135.53 809.24Z" fill="white"/>
<path d="M2061.59 669.433L2069.22 670.952L2145.05 654.292L2051.03 639.455L2050.98 639.479C2050.36 639.423 2049.73 639.415 2049.09 639.521L1667.91 702.995C1663.87 703.667 1661.14 707.486 1661.82 711.522L1687.52 865.872C1687.99 868.688 1690 870.834 1692.54 871.667L1692.05 871.924L1786.9 886.665L1783.35 857.427L2077.23 808.492C2081.27 807.82 2083.99 804.001 2083.32 799.965L2061.59 669.433Z" fill="#80D9A9"/>
<path opacity="0.2" d="M2083.31 799.962C2084 804.013 2081.26 807.817 2077.23 808.484L1799.85 854.698L1783.35 857.439L1786.89 886.659L1692.04 871.913L1692.53 871.666C1689.99 870.827 1687.99 868.678 1687.52 865.862L1661.83 711.512C1661.48 709.56 1661.95 707.658 1663.01 706.152C1664.08 704.522 1665.83 703.336 1667.91 702.99L2049.1 639.511C2049.74 639.412 2050.36 639.412 2050.98 639.486L2051.03 639.462L2145.04 654.282L2069.23 670.954L2061.57 669.423L2083.31 799.962Z" fill="black"/>
<path opacity="0.2" d="M1783.35 857.439L1786.89 886.659L1692.04 871.913L1692.53 871.666C1689.99 870.826 1687.99 868.678 1687.52 865.862L1661.83 711.512C1661.48 709.56 1661.95 707.658 1663.01 706.152L1766.8 724.43L1799.85 854.697L1783.35 857.439Z" fill="black"/>
<path d="M2171.09 823.311L1789.9 886.785C1785.87 887.457 1782.05 884.73 1781.38 880.694L1755.67 726.344C1755 722.308 1757.73 718.489 1761.77 717.817L2142.95 654.343C2146.99 653.672 2150.81 656.398 2151.48 660.434L2177.18 814.785C2177.85 818.821 2175.13 822.639 2171.09 823.311Z" fill="#80D9A9"/>
<path opacity="0.4" d="M2167.07 813.977L2142.17 664.5L1765.87 727.18L1790.77 876.656L2167.07 813.977Z" fill="black"/>
<path d="M1878.34 712.448L1877.53 714.91C1877.01 716.513 1875.64 717.691 1873.97 717.968L1850.52 721.873C1848.86 722.15 1847.18 721.48 1846.16 720.134L1844.6 718.064L1771.22 730.283L1778.4 773.392L1958.9 743.337L1951.72 700.229L1878.34 712.448Z" fill="#80D9A9"/>
<path d="M1886.68 762.515L1885.88 764.977C1885.35 766.58 1883.98 767.758 1882.32 768.035L1858.87 771.94C1857.2 772.217 1855.52 771.547 1854.51 770.201L1852.95 768.131L1779.56 780.35L1794.81 871.923L1975.31 841.868L1960.06 750.295L1886.68 762.515Z" fill="#80D9A9"/>
<path d="M2073 731.489L2072.2 733.951C2071.67 735.554 2070.3 736.733 2068.64 737.009L2045.19 740.914C2043.52 741.191 2041.84 740.522 2040.83 739.175L2039.27 737.108L1965.89 749.327L1981.13 840.9L2161.63 810.845L2146.38 719.272L2073 731.489Z" fill="#80D9A9"/>
<path d="M2064.67 681.422L2063.86 683.885C2063.33 685.488 2061.96 686.666 2060.3 686.942L2036.85 690.847C2035.19 691.124 2033.51 690.455 2032.49 689.109L2030.93 687.041L1957.55 699.26L1964.73 742.369L2145.22 712.314L2138.05 669.205L2064.67 681.422Z" fill="#80D9A9"/>
<g opacity="0.4">
<path d="M1878.34 712.448L1877.53 714.91C1877.01 716.513 1875.64 717.691 1873.97 717.968L1850.52 721.873C1848.86 722.15 1847.18 721.48 1846.16 720.134L1844.6 718.064L1771.22 730.283L1778.4 773.392L1958.9 743.337L1951.72 700.229L1878.34 712.448Z" fill="white"/>
<path d="M1886.68 762.515L1885.88 764.977C1885.35 766.58 1883.98 767.758 1882.32 768.035L1858.87 771.94C1857.2 772.217 1855.52 771.547 1854.51 770.201L1852.95 768.131L1779.56 780.35L1794.81 871.923L1975.31 841.868L1960.06 750.295L1886.68 762.515Z" fill="white"/>
<path d="M2073 731.489L2072.2 733.951C2071.67 735.554 2070.3 736.733 2068.64 737.009L2045.19 740.914C2043.52 741.191 2041.84 740.522 2040.83 739.175L2039.27 737.108L1965.89 749.327L1981.13 840.9L2161.63 810.845L2146.38 719.272L2073 731.489Z" fill="white"/>
<path d="M2064.67 681.422L2063.86 683.885C2063.33 685.488 2061.96 686.666 2060.3 686.942L2036.85 690.847C2035.19 691.124 2033.51 690.455 2032.49 689.109L2030.93 687.041L1957.55 699.26L1964.73 742.369L2145.22 712.314L2138.05 669.205L2064.67 681.422Z" fill="white"/>
</g>
<path d="M1786.66 1186.08L1773.75 1198.76L1746.97 1170.48L1759.87 1157.8L1786.66 1186.08Z" fill="#EBB376"/>
<path opacity="0.2" d="M1759.87 1157.8L1746.97 1170.48L1760.8 1185.06L1773.7 1172.37L1759.87 1157.8Z" fill="black"/>
<path d="M1767.2 1194.84L1782.67 1180.36C1783.19 1179.88 1783.98 1179.82 1784.57 1180.22L1797.69 1189.21C1798.86 1190.02 1799.14 1191.63 1798.33 1192.79C1798.22 1192.94 1798.09 1193.09 1797.95 1193.22C1792.87 1197.82 1788.94 1200.92 1782.66 1206.8C1778.79 1210.43 1767.49 1221.76 1762.15 1226.76C1756.81 1231.76 1751.17 1227.14 1752.9 1224.6C1760.71 1213.28 1765.32 1203.41 1765.83 1197.65C1765.91 1196.57 1766.4 1195.57 1767.2 1194.84Z" fill="#263238"/>
<path d="M1768.51 1162.61L1748.65 1184.54C1748.65 1184.54 1646.22 1091.92 1619.34 1053.14C1616.31 1048.74 1613.96 1043.5 1612.23 1037.63C1598.4 991.659 1620.23 908.148 1620.23 908.148L1620.58 897.28L1621.52 866.628L1688.78 876.483C1688.78 876.483 1687.54 884.585 1685.71 896.959C1682.48 918.992 1677.44 954.584 1674.45 981.977C1672.33 1001.22 1671.21 1016.41 1672.43 1020.01C1676.35 1031.6 1768.51 1162.61 1768.51 1162.61Z" fill="#263238"/>
<path opacity="0.2" d="M1685.71 896.959C1682.48 918.992 1677.44 954.585 1674.45 981.977L1612.23 1037.63C1598.4 991.659 1620.23 908.149 1620.23 908.149L1620.58 897.281C1633.18 892.81 1644.76 889.401 1644.76 889.401L1681.27 882.115L1685.71 896.959Z" fill="black"/>
<path d="M1586.78 732.949C1569.91 746.596 1600.4 793.279 1600.4 793.279L1626.58 779.079C1626.58 779.079 1607.28 716.365 1586.78 732.949Z" fill="#80D9A9"/>
<path opacity="0.5" d="M1586.78 732.949C1569.91 746.596 1600.4 793.279 1600.4 793.279L1626.58 779.079C1626.58 779.079 1607.28 716.365 1586.78 732.949Z" fill="white"/>
<path d="M1765.09 1201.02C1764.29 1201.9 1763.21 1202.48 1762.04 1202.66C1761.19 1202.71 1760.38 1202.32 1759.89 1201.63C1759.55 1201.28 1759.44 1200.76 1759.62 1200.3C1760.35 1198.26 1766.83 1196.93 1767.55 1196.8C1767.71 1196.76 1767.88 1196.82 1767.97 1196.96C1768.07 1197.09 1768.08 1197.28 1767.99 1197.43C1767.15 1198.73 1766.18 1199.93 1765.09 1201.02ZM1760.72 1200.15C1760.58 1200.27 1760.47 1200.42 1760.41 1200.6C1760.33 1200.67 1760.34 1200.88 1760.55 1201.13C1760.88 1201.59 1761.41 1201.85 1761.97 1201.84C1764 1201.15 1765.7 1199.72 1766.71 1197.82C1764.59 1198.21 1762.55 1199 1760.72 1200.15Z" fill="#80D9A9"/>
<path d="M1767.92 1197.52L1767.77 1197.65C1765.79 1198.17 1760.63 1197.75 1759.63 1196.16C1759.29 1195.61 1759.39 1194.9 1759.86 1194.46C1760.27 1193.96 1760.86 1193.67 1761.5 1193.65C1764.1 1193.47 1767.83 1196.84 1768.01 1197C1768.12 1197.11 1768.16 1197.27 1768.13 1197.42C1768.07 1197.47 1767.99 1197.51 1767.92 1197.52ZM1760.52 1194.75L1760.38 1194.88C1759.99 1195.25 1760.17 1195.5 1760.23 1195.6C1760.84 1196.58 1764.44 1197.18 1766.68 1196.94C1765.24 1195.57 1763.41 1194.68 1761.45 1194.37C1761.1 1194.38 1760.77 1194.52 1760.52 1194.75Z" fill="#80D9A9"/>
<path d="M1753.4 1192.07L1777.77 1161.35L1769.57 1154.33L1743.74 1185.76L1753.4 1192.07Z" fill="#80D9A9"/>
<path opacity="0.6" d="M1753.4 1192.07L1777.77 1161.35L1769.57 1154.33L1743.74 1185.76L1753.4 1192.07Z" fill="white"/>
<path d="M1605.35 1208.62L1588.39 1212.66L1577.64 1173.7L1594.62 1169.65L1605.35 1208.62Z" fill="#EBB376"/>
<path opacity="0.2" d="M1594.63 1169.68L1577.64 1173.72L1583.2 1193.81L1600.18 1189.76L1594.63 1169.68Z" fill="black"/>
<path d="M1585.66 1207.64H1606.84C1607.56 1207.65 1608.17 1208.14 1608.33 1208.84L1611.77 1224.37C1612.06 1225.76 1611.17 1227.12 1609.78 1227.42C1609.6 1227.46 1609.41 1227.47 1609.21 1227.47C1602.36 1227.36 1597.37 1226.94 1588.77 1226.94C1583.47 1226.94 1567.47 1227.49 1560.15 1227.49C1552.83 1227.49 1551.88 1220.26 1554.87 1219.6C1568.32 1216.67 1578.43 1212.61 1582.73 1208.75C1583.53 1208.02 1584.58 1207.62 1585.66 1207.64Z" fill="#263238"/>
<path d="M1579.89 1210.7C1578.71 1210.8 1577.52 1210.49 1576.54 1209.82C1575.89 1209.28 1575.56 1208.44 1575.68 1207.6C1575.67 1207.11 1575.94 1206.66 1576.39 1206.45C1578.32 1205.45 1583.95 1208.91 1584.57 1209.31C1584.72 1209.38 1584.8 1209.54 1584.77 1209.71C1584.75 1209.88 1584.62 1210.02 1584.46 1210.06C1582.97 1210.44 1581.43 1210.66 1579.89 1210.7ZM1577.3 1207.09C1577.11 1207.07 1576.93 1207.11 1576.77 1207.2C1576.66 1207.2 1576.52 1207.35 1576.5 1207.69C1576.43 1208.24 1576.64 1208.8 1577.05 1209.17C1579.01 1210.06 1581.23 1210.17 1583.26 1209.49C1581.44 1208.31 1579.42 1207.5 1577.3 1207.09Z" fill="#80D9A9"/>
<path d="M1584.35 1210.08H1584.15C1582.35 1209.11 1578.87 1205.27 1579.23 1203.43C1579.35 1202.79 1579.91 1202.34 1580.56 1202.34C1581.19 1202.26 1581.83 1202.45 1582.31 1202.87C1584.33 1204.51 1584.75 1209.53 1584.77 1209.77C1584.77 1209.92 1584.7 1210.07 1584.57 1210.15C1584.49 1210.15 1584.42 1210.13 1584.35 1210.08ZM1580.85 1203.01H1580.65C1580.12 1203.01 1580.07 1203.32 1580.05 1203.43C1579.83 1204.56 1582.04 1207.47 1583.84 1208.82C1583.72 1206.83 1583.01 1204.93 1581.78 1203.36C1581.52 1203.14 1581.19 1203.01 1580.85 1203.01Z" fill="#80D9A9"/>
<path d="M1711.52 838.993C1711.52 838.993 1723.97 858.832 1720.36 895.65C1716.18 938.26 1592.28 1007.16 1589.31 1013.41C1586.34 1019.65 1602.96 1181.96 1602.96 1181.96L1572.44 1184.54C1572.44 1184.54 1515.8 1039.16 1532.75 993.45C1549.7 947.738 1644.77 889.404 1644.77 889.404L1621.52 866.628L1711.52 838.993Z" fill="#263238"/>
<path d="M1586.78 732.949C1586.78 732.949 1615.82 706.977 1683.28 713.933C1683.28 713.933 1694.64 793.094 1708.59 829.462L1617.9 854.567C1617.9 854.567 1585.97 775.636 1586.78 732.949Z" fill="#80D9A9"/>
<path opacity="0.6" d="M1708.59 829.454L1617.89 854.574C1617.89 854.574 1585.98 775.633 1586.79 732.951C1586.79 732.951 1615.81 706.967 1683.27 713.932C1683.27 713.932 1685.39 728.653 1688.93 748.315C1691.44 762.394 1694.68 778.967 1698.39 794.504C1701.5 807.619 1704.96 819.994 1708.59 829.454Z" fill="white"/>
<path d="M1707.5 829.029L1617.16 855.377L1621.52 866.63L1711.52 838.993L1707.5 829.029Z" fill="black"/>
<path d="M1637.41 853.243L1639.44 858.469C1640.26 860.599 1642.54 861.725 1644.73 861.09L1653.22 858.632C1653.35 858.598 1653.47 858.558 1653.59 858.511C1654.6 858.119 1655.44 857.353 1655.93 856.37C1656.47 855.273 1656.53 853.991 1656.09 852.85L1654.05 847.609C1653.22 845.475 1650.94 844.351 1648.75 844.991L1640.27 847.465C1639.08 847.804 1638.11 848.634 1637.57 849.728C1637.03 850.822 1636.97 852.102 1637.41 853.243ZM1641.54 857.652L1640.87 855.93C1640.91 855.92 1640.95 855.93 1640.99 855.918L1643.36 855.204C1644.15 854.967 1644.6 854.127 1644.36 853.339C1644.12 852.551 1643.28 852.102 1642.5 852.339L1640.13 853.053C1640.01 853.087 1639.92 853.159 1639.82 853.218L1639.51 852.423C1639.3 851.862 1639.32 851.257 1639.59 850.719C1639.82 850.237 1640.22 849.874 1640.72 849.681C1640.77 849.659 1640.84 849.639 1640.89 849.622L1649.38 847.147C1650.44 846.838 1651.55 847.382 1651.95 848.416L1653.98 853.658C1654.2 854.219 1654.17 854.824 1653.9 855.362C1653.63 855.903 1653.17 856.293 1652.59 856.459L1644.1 858.916C1643.04 859.23 1641.94 858.684 1641.54 857.652Z" fill="white"/>
<path d="M1649.52 714.923C1635.48 734.046 1614.52 725.672 1614.52 725.672C1619.04 722.039 1620.51 718.008 1620.23 713.91C1620.01 711.114 1619.01 708.291 1617.6 705.534C1617.59 705.512 1617.59 705.49 1617.56 705.473C1616.84 704.04 1616.02 702.632 1615.14 701.281L1631.59 673.822C1633.16 685.698 1637.56 706.065 1646.96 713.327C1647.78 713.974 1648.61 714.503 1649.52 714.923Z" fill="#EBB376"/>
<path opacity="0.2" d="M1646.96 713.327C1634.19 715.842 1624.41 711.252 1617.56 705.473C1616.84 704.04 1616.02 702.632 1615.13 701.281L1631.59 673.822C1633.16 685.698 1637.55 706.065 1646.96 713.327Z" fill="black"/>
<path d="M1646.88 639.879C1646.88 639.879 1656.88 662.033 1647.09 674.37C1637.3 686.708 1625.24 643.634 1625.24 643.634L1646.88 639.879Z" fill="#263238"/>
<path d="M1616.58 702.738C1624.93 709.634 1635.28 709.158 1642.97 704.129C1647.92 700.903 1651.76 695.775 1653.28 689.521C1653.49 688.704 1653.64 687.854 1653.77 686.989C1655.85 671.159 1650.86 645.886 1633.31 640.8C1620.82 637.086 1607.66 644.202 1603.95 656.71C1602.87 660.259 1602.68 664.021 1603.34 667.684C1606.13 684.727 1606.96 694.881 1616.58 702.738Z" fill="#EBB376"/>
<path d="M1629.91 669.771C1629.95 671.167 1630.9 672.224 1631.83 672.125C1632.76 672.026 1633.36 670.809 1633.23 669.415C1633.09 668.022 1632.21 666.965 1631.3 667.062C1630.39 667.158 1629.77 668.356 1629.91 669.771Z" fill="#263238"/>
<path d="M1645.72 668.124C1645.77 669.519 1646.73 670.574 1647.64 670.478C1648.55 670.381 1649.17 669.161 1649.04 667.768C1648.9 666.375 1648.02 665.318 1647.11 665.414C1646.21 665.51 1645.59 666.797 1645.72 668.124Z" fill="#263238"/>
<path d="M1640.77 669.336C1642.88 673.442 1645.54 677.233 1648.69 680.607C1646.89 682.2 1644.48 682.914 1642.1 682.561L1640.77 669.336Z" fill="#D58745"/>
<path d="M1624.47 665.162C1624.78 665.175 1625.07 665.021 1625.23 664.76C1626.28 662.937 1628.12 661.717 1630.2 661.462C1630.65 661.447 1631.01 661.069 1631 660.615C1630.98 660.163 1630.6 659.807 1630.15 659.82C1627.51 660.072 1625.15 661.593 1623.83 663.895C1623.58 664.276 1623.69 664.784 1624.07 665.029C1624.08 665.031 1624.08 665.036 1624.09 665.039C1624.21 665.1 1624.34 665.142 1624.47 665.162Z" fill="#263238"/>
<path d="M1651.95 661.966C1652.11 662.01 1652.28 662.005 1652.43 661.949C1652.82 661.716 1652.95 661.213 1652.71 660.822C1652.71 660.817 1652.71 660.812 1652.7 660.807C1651.35 658.513 1648.97 657.021 1646.31 656.809C1645.86 656.799 1645.48 657.159 1645.47 657.611V657.614C1645.48 658.063 1645.83 658.431 1646.28 658.451C1648.37 658.681 1650.23 659.884 1651.29 661.699C1651.46 661.879 1651.7 661.976 1651.95 661.966Z" fill="#263238"/>
<path d="M1613.71 644.94L1615.77 652.325C1613.51 654.017 1612.44 657.028 1614.03 659.819C1617.43 665.78 1615.34 676.144 1611.07 680.8C1611.07 680.8 1610.51 678.08 1608.29 679.083C1606.08 680.086 1608.89 694.269 1614.45 700.392C1614.45 700.392 1606.68 695.271 1600.54 680.869C1594.86 667.548 1592.65 656.06 1594.68 650.263L1613.71 644.94Z" fill="#263238"/>
<path d="M1597.3 682.546C1599.61 686.234 1603.29 688.857 1607.53 689.835C1613.15 691.092 1615.66 685.984 1613.86 680.827C1612.21 676.257 1607.32 669.939 1601.79 671.046C1596.26 672.152 1594.52 677.984 1597.3 682.546Z" fill="#EBB376"/>
<path d="M1615.78 652.326C1615.78 652.326 1624.42 656.003 1626.86 653.393C1629.29 650.782 1625.9 648.164 1625.9 648.164C1625.9 648.164 1637.76 652.659 1642.56 651.14C1647.35 649.621 1641.9 643.703 1641.9 643.703C1641.9 643.703 1650.98 652.96 1653.88 649.283C1655.28 647.512 1653.7 634.611 1636.42 630.439C1619.15 626.267 1603.72 634.08 1600.37 640.536C1600.37 640.536 1590.43 643.881 1591.56 654.702C1593.03 668.796 1615.78 652.326 1615.78 652.326Z" fill="#263238"/>
<path d="M1640.26 686.96C1638.73 688.657 1636.67 692.09 1636.67 692.09C1636.33 691.959 1635.98 691.831 1635.65 691.683C1631.02 689.798 1629.49 687.395 1629.2 685.303C1629.05 684.157 1629.28 683.097 1629.58 682.274C1629.92 681.321 1630.37 680.718 1630.37 680.718C1632.23 683.183 1636.41 685.27 1638.69 686.293C1639.64 686.73 1640.26 686.96 1640.26 686.96Z" fill="#263238"/>
<path d="M1638.69 686.293L1637.59 687.778C1633.24 685.992 1630.41 684.152 1629.58 682.274C1629.91 681.321 1630.37 680.718 1630.37 680.718C1632.23 683.183 1636.41 685.27 1638.69 686.293Z" fill="white"/>
<path d="M1635.64 691.682C1631.02 689.798 1629.49 687.395 1629.2 685.302C1630.76 686.004 1632.55 687.024 1633.93 688.412C1634.99 689.469 1635.45 690.625 1635.64 691.682Z" fill="#DE5753"/>
<path d="M1570.9 1193.29L1607.5 1184.58L1604.89 1173.64L1566.75 1181.97L1570.9 1193.29Z" fill="#80D9A9"/>
<path opacity="0.6" d="M1570.9 1193.29L1607.5 1184.58L1604.89 1173.64L1566.75 1181.97L1570.9 1193.29Z" fill="white"/>
<path opacity="0.2" d="M1698.38 794.504C1684.45 778.128 1675.81 747.302 1675.98 742.362C1675.98 742.362 1681.39 744.585 1688.92 748.315C1691.44 762.394 1694.68 778.967 1698.38 794.504Z" fill="black"/>
<path d="M1692.95 723.768C1692.95 723.768 1693.57 724.692 1694.64 726.312C1701.47 736.585 1726.92 774.84 1732.58 783.181C1739.15 792.836 1762.96 862.891 1762.96 862.891L1752.88 869.607C1752.88 869.607 1726.1 804.315 1721.75 796.895C1717.4 789.477 1693.96 761.245 1693.96 761.245" fill="#EBB376"/>
<path d="M1686.41 713.984C1697.58 718.42 1718.78 753.734 1718.78 753.734L1702.81 776.774L1687.86 768.569C1687.86 768.569 1676.9 756.787 1675.17 736.461C1673.45 716.135 1686.41 713.984 1686.41 713.984Z" fill="#80D9A9"/>
<path opacity="0.6" d="M1686.41 713.984C1697.58 718.42 1718.78 753.734 1718.78 753.734L1702.81 776.774L1687.86 768.569C1687.86 768.569 1676.9 756.787 1675.17 736.461C1673.45 716.135 1686.41 713.984 1686.41 713.984Z" fill="white"/>
<path d="M1759.44 861.265C1760.42 861.275 1763.02 860.28 1767.26 861.265C1771.49 862.251 1783.16 884.402 1783.16 884.402C1783.16 884.402 1768.11 894.171 1762.96 890.915C1757.81 887.66 1747.79 873.294 1751.66 866.633C1755.53 859.971 1759.44 861.265 1759.44 861.265Z" fill="#EBB376"/>
<path d="M1602.96 761.719L1645.7 758.022L1659.68 812.71L1619.06 819.5L1602.96 761.719Z" fill="#80D9A9"/>
<path opacity="0.2" d="M1614.78 772.17L1651.76 769.574L1663.96 817.455L1627.54 823.237L1614.78 772.17Z" fill="black"/>
</g>
<defs>
<clipPath id="clip0_40_1841">
<rect width="2800" height="1796" fill="white"/>
</clipPath>
</defs>
</svg>
